<mxfile host="65bd71144e">
    <diagram id="vYs8UwvgQ2NDb4jDfUqr" name="actor">
        <mxGraphModel dx="1716" dy="707" grid="1" gridSize="10" guides="1" tooltips="1" connect="1" arrows="1" fold="1" page="1" pageScale="1" pageWidth="850" pageHeight="1100" math="0" shadow="0">
            <root>
                <mxCell id="0"/>
                <mxCell id="1" parent="0"/>
                <mxCell id="4mWlzIuWLO6INrVy0wRm-33" value="" style="group" parent="1" connectable="0" vertex="1">
                    <mxGeometry x="510" y="575" width="230" height="65" as="geometry"/>
                </mxCell>
                <mxCell id="4mWlzIuWLO6INrVy0wRm-34" value="" style="ellipse;whiteSpace=wrap;html=1;" parent="4mWlzIuWLO6INrVy0wRm-33" vertex="1">
                    <mxGeometry width="140" height="50" as="geometry"/>
                </mxCell>
                <mxCell id="4mWlzIuWLO6INrVy0wRm-35" value="Distribute Tasks" style="text;strokeColor=none;align=center;fillColor=none;html=1;verticalAlign=middle;whiteSpace=wrap;rounded=0;" parent="4mWlzIuWLO6INrVy0wRm-33" vertex="1">
                    <mxGeometry x="11.666666666666666" y="10" width="116.66666666666669" height="30" as="geometry"/>
                </mxCell>
                <mxCell id="4mWlzIuWLO6INrVy0wRm-25" value="" style="rounded=0;whiteSpace=wrap;html=1;" parent="4mWlzIuWLO6INrVy0wRm-33" vertex="1">
                    <mxGeometry x="-400" y="-45" width="630" height="110" as="geometry"/>
                </mxCell>
                <mxCell id="2" value="" style="group" parent="4mWlzIuWLO6INrVy0wRm-33" connectable="0" vertex="1">
                    <mxGeometry x="11.669999999999959" width="120" height="50" as="geometry"/>
                </mxCell>
                <mxCell id="3" value="" style="ellipse;whiteSpace=wrap;html=1;" parent="2" vertex="1">
                    <mxGeometry width="120" height="50" as="geometry"/>
                </mxCell>
                <mxCell id="4" value="View Events" style="text;strokeColor=none;align=center;fillColor=none;html=1;verticalAlign=middle;whiteSpace=wrap;rounded=0;" parent="2" vertex="1">
                    <mxGeometry x="10" y="10" width="100" height="30" as="geometry"/>
                </mxCell>
                <mxCell id="4mWlzIuWLO6INrVy0wRm-9" value="Student&lt;br&gt;" style="shape=umlActor;verticalLabelPosition=bottom;verticalAlign=top;html=1;outlineConnect=0;" parent="1" vertex="1">
                    <mxGeometry x="410" y="80" width="30" height="60" as="geometry"/>
                </mxCell>
                <mxCell id="4mWlzIuWLO6INrVy0wRm-10" value="" style="rounded=0;whiteSpace=wrap;html=1;" parent="1" vertex="1">
                    <mxGeometry x="190" y="210" width="470" height="110" as="geometry"/>
                </mxCell>
                <mxCell id="4mWlzIuWLO6INrVy0wRm-11" value="KTDI Event Management System" style="text;strokeColor=none;align=center;fillColor=none;html=1;verticalAlign=middle;whiteSpace=wrap;rounded=0;" parent="1" vertex="1">
                    <mxGeometry x="260" y="220" width="330" height="30" as="geometry"/>
                </mxCell>
                <mxCell id="4mWlzIuWLO6INrVy0wRm-12" value="" style="group" parent="1" connectable="0" vertex="1">
                    <mxGeometry x="210" y="255" width="120" height="50" as="geometry"/>
                </mxCell>
                <mxCell id="4mWlzIuWLO6INrVy0wRm-13" value="" style="ellipse;whiteSpace=wrap;html=1;" parent="4mWlzIuWLO6INrVy0wRm-12" vertex="1">
                    <mxGeometry width="120" height="50" as="geometry"/>
                </mxCell>
                <mxCell id="4mWlzIuWLO6INrVy0wRm-14" value="View Events" style="text;strokeColor=none;align=center;fillColor=none;html=1;verticalAlign=middle;whiteSpace=wrap;rounded=0;" parent="4mWlzIuWLO6INrVy0wRm-12" vertex="1">
                    <mxGeometry x="10" y="10" width="100" height="30" as="geometry"/>
                </mxCell>
                <mxCell id="4mWlzIuWLO6INrVy0wRm-18" value="" style="group" parent="1" connectable="0" vertex="1">
                    <mxGeometry x="510" y="255" width="140" height="50" as="geometry"/>
                </mxCell>
                <mxCell id="4mWlzIuWLO6INrVy0wRm-19" value="" style="ellipse;whiteSpace=wrap;html=1;" parent="4mWlzIuWLO6INrVy0wRm-18" vertex="1">
                    <mxGeometry width="140" height="50" as="geometry"/>
                </mxCell>
                <mxCell id="4mWlzIuWLO6INrVy0wRm-20" value="Get E-certificate" style="text;strokeColor=none;align=center;fillColor=none;html=1;verticalAlign=middle;whiteSpace=wrap;rounded=0;" parent="4mWlzIuWLO6INrVy0wRm-18" vertex="1">
                    <mxGeometry x="11.666666666666666" y="10" width="116.66666666666669" height="30" as="geometry"/>
                </mxCell>
                <mxCell id="4mWlzIuWLO6INrVy0wRm-21" value="" style="endArrow=classic;html=1;entryX=0.5;entryY=0;entryDx=0;entryDy=0;" parent="1" target="4mWlzIuWLO6INrVy0wRm-13" edge="1">
                    <mxGeometry width="50" height="50" relative="1" as="geometry">
                        <mxPoint x="400" y="140" as="sourcePoint"/>
                        <mxPoint x="380" y="110" as="targetPoint"/>
                    </mxGeometry>
                </mxCell>
                <mxCell id="4mWlzIuWLO6INrVy0wRm-23" value="" style="endArrow=classic;html=1;entryX=0.5;entryY=0;entryDx=0;entryDy=0;" parent="1" target="4mWlzIuWLO6INrVy0wRm-19" edge="1">
                    <mxGeometry width="50" height="50" relative="1" as="geometry">
                        <mxPoint x="450" y="140" as="sourcePoint"/>
                        <mxPoint x="460" y="190" as="targetPoint"/>
                    </mxGeometry>
                </mxCell>
                <mxCell id="4mWlzIuWLO6INrVy0wRm-24" value="JKM KTDI" style="shape=umlActor;verticalLabelPosition=bottom;verticalAlign=top;html=1;outlineConnect=0;" parent="1" vertex="1">
                    <mxGeometry x="410" y="400" width="30" height="60" as="geometry"/>
                </mxCell>
                <mxCell id="4mWlzIuWLO6INrVy0wRm-26" value="KTDI Event Management System" style="text;strokeColor=none;align=center;fillColor=none;html=1;verticalAlign=middle;whiteSpace=wrap;rounded=0;" parent="1" vertex="1">
                    <mxGeometry x="260" y="540" width="330" height="30" as="geometry"/>
                </mxCell>
                <mxCell id="4mWlzIuWLO6INrVy0wRm-27" value="" style="group" parent="1" connectable="0" vertex="1">
                    <mxGeometry x="210" y="575" width="120" height="50" as="geometry"/>
                </mxCell>
                <mxCell id="4mWlzIuWLO6INrVy0wRm-28" value="" style="ellipse;whiteSpace=wrap;html=1;" parent="4mWlzIuWLO6INrVy0wRm-27" vertex="1">
                    <mxGeometry width="120" height="50" as="geometry"/>
                </mxCell>
                <mxCell id="4mWlzIuWLO6INrVy0wRm-29" value="Manage Documents" style="text;strokeColor=none;align=center;fillColor=none;html=1;verticalAlign=middle;whiteSpace=wrap;rounded=0;" parent="4mWlzIuWLO6INrVy0wRm-27" vertex="1">
                    <mxGeometry x="10" y="10" width="100" height="30" as="geometry"/>
                </mxCell>
                <mxCell id="4mWlzIuWLO6INrVy0wRm-30" value="" style="group" parent="1" connectable="0" vertex="1">
                    <mxGeometry x="348" y="575" width="142" height="50" as="geometry"/>
                </mxCell>
                <mxCell id="4mWlzIuWLO6INrVy0wRm-31" value="" style="ellipse;whiteSpace=wrap;html=1;" parent="4mWlzIuWLO6INrVy0wRm-30" vertex="1">
                    <mxGeometry width="142" height="50" as="geometry"/>
                </mxCell>
                <mxCell id="4mWlzIuWLO6INrVy0wRm-32" value="Record" style="text;strokeColor=none;align=center;fillColor=none;html=1;verticalAlign=middle;whiteSpace=wrap;rounded=0;" parent="4mWlzIuWLO6INrVy0wRm-30" vertex="1">
                    <mxGeometry x="11.833333333333332" y="10" width="118.33333333333334" height="30" as="geometry"/>
                </mxCell>
                <mxCell id="4mWlzIuWLO6INrVy0wRm-36" value="" style="endArrow=classic;html=1;entryX=0.5;entryY=0;entryDx=0;entryDy=0;" parent="1" target="4mWlzIuWLO6INrVy0wRm-28" edge="1">
                    <mxGeometry width="50" height="50" relative="1" as="geometry">
                        <mxPoint x="400" y="460" as="sourcePoint"/>
                        <mxPoint x="380" y="430" as="targetPoint"/>
                    </mxGeometry>
                </mxCell>
                <mxCell id="4mWlzIuWLO6INrVy0wRm-37" value="" style="endArrow=classic;html=1;entryX=0.5;entryY=0;entryDx=0;entryDy=0;" parent="1" target="4mWlzIuWLO6INrVy0wRm-31" edge="1">
                    <mxGeometry width="50" height="50" relative="1" as="geometry">
                        <mxPoint x="420" y="490" as="sourcePoint"/>
                        <mxPoint x="420" y="510" as="targetPoint"/>
                    </mxGeometry>
                </mxCell>
                <mxCell id="4mWlzIuWLO6INrVy0wRm-38" value="" style="endArrow=classic;html=1;entryX=0.5;entryY=0;entryDx=0;entryDy=0;" parent="1" target="4mWlzIuWLO6INrVy0wRm-34" edge="1">
                    <mxGeometry width="50" height="50" relative="1" as="geometry">
                        <mxPoint x="450" y="460" as="sourcePoint"/>
                        <mxPoint x="460" y="510" as="targetPoint"/>
                    </mxGeometry>
                </mxCell>
                <mxCell id="4mWlzIuWLO6INrVy0wRm-39" value="Admin" style="shape=umlActor;verticalLabelPosition=bottom;verticalAlign=top;html=1;outlineConnect=0;" parent="1" vertex="1">
                    <mxGeometry x="410" y="710" width="30" height="60" as="geometry"/>
                </mxCell>
                <mxCell id="4mWlzIuWLO6INrVy0wRm-40" value="" style="rounded=0;whiteSpace=wrap;html=1;" parent="1" vertex="1">
                    <mxGeometry x="190" y="840" width="470" height="110" as="geometry"/>
                </mxCell>
                <mxCell id="4mWlzIuWLO6INrVy0wRm-41" value="KTDI Event Management System" style="text;strokeColor=none;align=center;fillColor=none;html=1;verticalAlign=middle;whiteSpace=wrap;rounded=0;" parent="1" vertex="1">
                    <mxGeometry x="260" y="850" width="330" height="30" as="geometry"/>
                </mxCell>
                <mxCell id="4mWlzIuWLO6INrVy0wRm-42" value="" style="group" parent="1" connectable="0" vertex="1">
                    <mxGeometry x="210" y="885" width="120" height="50" as="geometry"/>
                </mxCell>
                <mxCell id="4mWlzIuWLO6INrVy0wRm-43" value="" style="ellipse;whiteSpace=wrap;html=1;" parent="4mWlzIuWLO6INrVy0wRm-42" vertex="1">
                    <mxGeometry width="120" height="50" as="geometry"/>
                </mxCell>
                <mxCell id="4mWlzIuWLO6INrVy0wRm-44" value="Approve Documents" style="text;strokeColor=none;align=center;fillColor=none;html=1;verticalAlign=middle;whiteSpace=wrap;rounded=0;" parent="4mWlzIuWLO6INrVy0wRm-42" vertex="1">
                    <mxGeometry x="10" y="10" width="100" height="30" as="geometry"/>
                </mxCell>
                <mxCell id="4mWlzIuWLO6INrVy0wRm-45" value="" style="group" parent="1" connectable="0" vertex="1">
                    <mxGeometry x="348" y="885" width="142" height="50" as="geometry"/>
                </mxCell>
                <mxCell id="4mWlzIuWLO6INrVy0wRm-46" value="" style="ellipse;whiteSpace=wrap;html=1;" parent="4mWlzIuWLO6INrVy0wRm-45" vertex="1">
                    <mxGeometry width="142" height="50" as="geometry"/>
                </mxCell>
                <mxCell id="4mWlzIuWLO6INrVy0wRm-47" value="Record" style="text;strokeColor=none;align=center;fillColor=none;html=1;verticalAlign=middle;whiteSpace=wrap;rounded=0;" parent="4mWlzIuWLO6INrVy0wRm-45" vertex="1">
                    <mxGeometry x="11.833333333333332" y="10" width="118.33333333333334" height="30" as="geometry"/>
                </mxCell>
                <mxCell id="4mWlzIuWLO6INrVy0wRm-48" value="" style="group" parent="1" connectable="0" vertex="1">
                    <mxGeometry x="510" y="885" width="140" height="50" as="geometry"/>
                </mxCell>
                <mxCell id="4mWlzIuWLO6INrVy0wRm-49" value="" style="ellipse;whiteSpace=wrap;html=1;" parent="4mWlzIuWLO6INrVy0wRm-48" vertex="1">
                    <mxGeometry width="140" height="50" as="geometry"/>
                </mxCell>
                <mxCell id="4mWlzIuWLO6INrVy0wRm-50" value="Check Progress" style="text;strokeColor=none;align=center;fillColor=none;html=1;verticalAlign=middle;whiteSpace=wrap;rounded=0;" parent="4mWlzIuWLO6INrVy0wRm-48" vertex="1">
                    <mxGeometry x="11.666666666666666" y="10" width="116.66666666666669" height="30" as="geometry"/>
                </mxCell>
                <mxCell id="4mWlzIuWLO6INrVy0wRm-51" value="" style="endArrow=classic;html=1;entryX=0.5;entryY=0;entryDx=0;entryDy=0;" parent="1" target="4mWlzIuWLO6INrVy0wRm-43" edge="1">
                    <mxGeometry width="50" height="50" relative="1" as="geometry">
                        <mxPoint x="400" y="770" as="sourcePoint"/>
                        <mxPoint x="380" y="740" as="targetPoint"/>
                    </mxGeometry>
                </mxCell>
                <mxCell id="4mWlzIuWLO6INrVy0wRm-52" value="" style="endArrow=classic;html=1;entryX=0.5;entryY=0;entryDx=0;entryDy=0;" parent="1" target="4mWlzIuWLO6INrVy0wRm-46" edge="1">
                    <mxGeometry width="50" height="50" relative="1" as="geometry">
                        <mxPoint x="420" y="800" as="sourcePoint"/>
                        <mxPoint x="420" y="820" as="targetPoint"/>
                    </mxGeometry>
                </mxCell>
                <mxCell id="4mWlzIuWLO6INrVy0wRm-53" value="" style="endArrow=classic;html=1;entryX=0.5;entryY=0;entryDx=0;entryDy=0;" parent="1" target="4mWlzIuWLO6INrVy0wRm-49" edge="1">
                    <mxGeometry width="50" height="50" relative="1" as="geometry">
                        <mxPoint x="450" y="770" as="sourcePoint"/>
                        <mxPoint x="460" y="820" as="targetPoint"/>
                    </mxGeometry>
                </mxCell>
                <mxCell id="E4qRGEW4nuFTTpNjo29g-3" value="" style="group" parent="1" connectable="0" vertex="1">
                    <mxGeometry x="354" y="255" width="142" height="50" as="geometry"/>
                </mxCell>
                <mxCell id="E4qRGEW4nuFTTpNjo29g-4" value="" style="ellipse;whiteSpace=wrap;html=1;" parent="E4qRGEW4nuFTTpNjo29g-3" vertex="1">
                    <mxGeometry width="142" height="50" as="geometry"/>
                </mxCell>
                <mxCell id="E4qRGEW4nuFTTpNjo29g-5" value="Register for a Event" style="text;strokeColor=none;align=center;fillColor=none;html=1;verticalAlign=middle;whiteSpace=wrap;rounded=0;" parent="E4qRGEW4nuFTTpNjo29g-3" vertex="1">
                    <mxGeometry x="11.833333333333332" y="10" width="118.33333333333334" height="30" as="geometry"/>
                </mxCell>
                <mxCell id="E4qRGEW4nuFTTpNjo29g-6" value="" style="endArrow=classic;html=1;entryX=0.5;entryY=0;entryDx=0;entryDy=0;" parent="1" target="E4qRGEW4nuFTTpNjo29g-4" edge="1">
                    <mxGeometry width="50" height="50" relative="1" as="geometry">
                        <mxPoint x="426" y="170" as="sourcePoint"/>
                        <mxPoint x="426" y="190" as="targetPoint"/>
                    </mxGeometry>
                </mxCell>
            </root>
        </mxGraphModel>
    </diagram>
    <diagram id="fxJPTXVTithkEzRg_fZR" name="use case">
        <mxGraphModel dx="1404" dy="578" grid="1" gridSize="10" guides="1" tooltips="1" connect="1" arrows="1" fold="1" page="1" pageScale="1" pageWidth="850" pageHeight="1100" math="0" shadow="0">
            <root>
                <mxCell id="0"/>
                <mxCell id="1" parent="0"/>
                <mxCell id="IFoo-nwhp-qmNw-mQAHe-54" value="Student" style="shape=umlActor;verticalLabelPosition=bottom;verticalAlign=top;html=1;outlineConnect=0;" parent="1" vertex="1">
                    <mxGeometry x="60" y="530" width="30" height="60" as="geometry"/>
                </mxCell>
                <mxCell id="IFoo-nwhp-qmNw-mQAHe-55" value="JKM KTDI" style="shape=umlActor;verticalLabelPosition=bottom;verticalAlign=top;html=1;outlineConnect=0;" parent="1" vertex="1">
                    <mxGeometry x="770" y="420" width="30" height="60" as="geometry"/>
                </mxCell>
                <mxCell id="IFoo-nwhp-qmNw-mQAHe-56" value="Admin" style="shape=umlActor;verticalLabelPosition=bottom;verticalAlign=top;html=1;outlineConnect=0;" parent="1" vertex="1">
                    <mxGeometry x="750" y="920" width="30" height="60" as="geometry"/>
                </mxCell>
                <mxCell id="IFoo-nwhp-qmNw-mQAHe-57" value="" style="rounded=0;whiteSpace=wrap;html=1;fillColor=#E6D0DE;" parent="1" vertex="1">
                    <mxGeometry x="248" y="100" width="375" height="70" as="geometry"/>
                </mxCell>
                <mxCell id="IFoo-nwhp-qmNw-mQAHe-58" value="&lt;font style=&quot;font-size: 14px;&quot;&gt;Sign in&lt;/font&gt;" style="ellipse;whiteSpace=wrap;html=1;" parent="1" vertex="1">
                    <mxGeometry x="278" y="115" width="120" height="35" as="geometry"/>
                </mxCell>
                <mxCell id="IFoo-nwhp-qmNw-mQAHe-59" value="Authentication Subsystem" style="text;html=1;align=center;verticalAlign=middle;resizable=0;points=[];autosize=1;strokeColor=none;fillColor=none;" parent="1" vertex="1">
                    <mxGeometry x="250" y="70" width="160" height="30" as="geometry"/>
                </mxCell>
                <mxCell id="IFoo-nwhp-qmNw-mQAHe-60" value="" style="rounded=0;whiteSpace=wrap;html=1;fillColor=#E6D0DE;" parent="1" vertex="1">
                    <mxGeometry x="248" y="240" width="375" height="100" as="geometry"/>
                </mxCell>
                <mxCell id="IFoo-nwhp-qmNw-mQAHe-61" value="Registration Subsystem" style="text;html=1;align=center;verticalAlign=middle;resizable=0;points=[];autosize=1;strokeColor=none;fillColor=none;" parent="1" vertex="1">
                    <mxGeometry x="250" y="210" width="150" height="30" as="geometry"/>
                </mxCell>
                <mxCell id="IFoo-nwhp-qmNw-mQAHe-62" value="&lt;font style=&quot;font-size: 12px;&quot;&gt;Register For Event&lt;/font&gt;" style="ellipse;whiteSpace=wrap;html=1;" parent="1" vertex="1">
                    <mxGeometry x="259.5" y="260" width="127" height="60" as="geometry"/>
                </mxCell>
                <mxCell id="IFoo-nwhp-qmNw-mQAHe-63" value="&lt;font style=&quot;font-size: 12px;&quot;&gt;Manage Registration Link&lt;/font&gt;" style="ellipse;whiteSpace=wrap;html=1;" parent="1" vertex="1">
                    <mxGeometry x="458.5" y="257.5" width="150" height="65" as="geometry"/>
                </mxCell>
                <mxCell id="IFoo-nwhp-qmNw-mQAHe-64" value="" style="rounded=0;whiteSpace=wrap;html=1;fillColor=#E6D0DE;" parent="1" vertex="1">
                    <mxGeometry x="248" y="530" width="375" height="90" as="geometry"/>
                </mxCell>
                <mxCell id="IFoo-nwhp-qmNw-mQAHe-65" value="Schedule Subsystem" style="text;html=1;align=center;verticalAlign=middle;resizable=0;points=[];autosize=1;strokeColor=none;fillColor=none;" parent="1" vertex="1">
                    <mxGeometry x="248" y="500" width="140" height="30" as="geometry"/>
                </mxCell>
                <mxCell id="IFoo-nwhp-qmNw-mQAHe-66" value="&lt;font style=&quot;font-size: 12px;&quot;&gt;View Timetable&lt;/font&gt;" style="ellipse;whiteSpace=wrap;html=1;" parent="1" vertex="1">
                    <mxGeometry x="259.5" y="545" width="127" height="60" as="geometry"/>
                </mxCell>
                <mxCell id="IFoo-nwhp-qmNw-mQAHe-67" value="&lt;font style=&quot;font-size: 12px;&quot;&gt;Manage Timetable&lt;/font&gt;" style="ellipse;whiteSpace=wrap;html=1;" parent="1" vertex="1">
                    <mxGeometry x="458" y="542.5" width="150" height="65" as="geometry"/>
                </mxCell>
                <mxCell id="IFoo-nwhp-qmNw-mQAHe-68" value="" style="rounded=0;whiteSpace=wrap;html=1;fillColor=#E6D0DE;" parent="1" vertex="1">
                    <mxGeometry x="248" y="680" width="375" height="400" as="geometry"/>
                </mxCell>
                <mxCell id="IFoo-nwhp-qmNw-mQAHe-69" value="Account Subsystem" style="text;html=1;align=center;verticalAlign=middle;resizable=0;points=[];autosize=1;strokeColor=none;fillColor=none;" parent="1" vertex="1">
                    <mxGeometry x="253" y="650" width="130" height="30" as="geometry"/>
                </mxCell>
                <mxCell id="IFoo-nwhp-qmNw-mQAHe-70" value="&lt;font style=&quot;font-size: 12px;&quot;&gt;View Registered Events Record&lt;/font&gt;" style="ellipse;whiteSpace=wrap;html=1;" parent="1" vertex="1">
                    <mxGeometry x="264.5" y="700" width="127" height="60" as="geometry"/>
                </mxCell>
                <mxCell id="IFoo-nwhp-qmNw-mQAHe-71" value="&lt;font style=&quot;font-size: 12px;&quot;&gt;Provide Feedback To Attended Events&lt;/font&gt;" style="ellipse;whiteSpace=wrap;html=1;" parent="1" vertex="1">
                    <mxGeometry x="266.5" y="770" width="127" height="60" as="geometry"/>
                </mxCell>
                <mxCell id="IFoo-nwhp-qmNw-mQAHe-72" value="&lt;font style=&quot;font-size: 12px;&quot;&gt;Receive Autogenerated E-Certificate&lt;/font&gt;" style="ellipse;whiteSpace=wrap;html=1;" parent="1" vertex="1">
                    <mxGeometry x="266.5" y="840" width="127" height="60" as="geometry"/>
                </mxCell>
                <mxCell id="IFoo-nwhp-qmNw-mQAHe-73" value="&lt;font style=&quot;font-size: 12px;&quot;&gt;View Feedbacks&lt;/font&gt;" style="ellipse;whiteSpace=wrap;html=1;" parent="1" vertex="1">
                    <mxGeometry x="481" y="770" width="127" height="60" as="geometry"/>
                </mxCell>
                <mxCell id="IFoo-nwhp-qmNw-mQAHe-74" value="&lt;font style=&quot;font-size: 12px;&quot;&gt;Manage and Approve JKM's Work Progress&lt;/font&gt;" style="ellipse;whiteSpace=wrap;html=1;" parent="1" vertex="1">
                    <mxGeometry x="458" y="990" width="127" height="60" as="geometry"/>
                </mxCell>
                <mxCell id="IFoo-nwhp-qmNw-mQAHe-75" value="Task Distributions" style="ellipse;whiteSpace=wrap;html=1;" parent="1" vertex="1">
                    <mxGeometry x="481.5" y="845" width="127" height="50" as="geometry"/>
                </mxCell>
                <mxCell id="IFoo-nwhp-qmNw-mQAHe-76" value="&lt;font style=&quot;font-size: 12px;&quot;&gt;View Registered Students' Information&lt;/font&gt;" style="ellipse;whiteSpace=wrap;html=1;" parent="1" vertex="1">
                    <mxGeometry x="372" y="910" width="127" height="60" as="geometry"/>
                </mxCell>
                <mxCell id="IFoo-nwhp-qmNw-mQAHe-77" value="" style="rounded=0;whiteSpace=wrap;html=1;fillColor=#E6D0DE;" parent="1" vertex="1">
                    <mxGeometry x="248" y="390" width="375" height="100" as="geometry"/>
                </mxCell>
                <mxCell id="IFoo-nwhp-qmNw-mQAHe-78" value="Attendance Subsystem" style="text;html=1;align=center;verticalAlign=middle;resizable=0;points=[];autosize=1;strokeColor=none;fillColor=none;" parent="1" vertex="1">
                    <mxGeometry x="248" y="360" width="150" height="30" as="geometry"/>
                </mxCell>
                <mxCell id="IFoo-nwhp-qmNw-mQAHe-79" value="&lt;font style=&quot;font-size: 12px;&quot;&gt;Scan Attendance During Event&lt;/font&gt;" style="ellipse;whiteSpace=wrap;html=1;" parent="1" vertex="1">
                    <mxGeometry x="259.5" y="407.5" width="127" height="60" as="geometry"/>
                </mxCell>
                <mxCell id="IFoo-nwhp-qmNw-mQAHe-80" value="&lt;font style=&quot;font-size: 12px;&quot;&gt;Provide Attendance Link&lt;/font&gt;" style="ellipse;whiteSpace=wrap;html=1;" parent="1" vertex="1">
                    <mxGeometry x="458.5" y="405" width="150" height="65" as="geometry"/>
                </mxCell>
                <mxCell id="IFoo-nwhp-qmNw-mQAHe-81" value="" style="html=1;labelBackgroundColor=#ffffff;startArrow=none;startFill=0;startSize=6;endArrow=classic;endFill=1;endSize=6;jettySize=auto;orthogonalLoop=1;strokeWidth=1;dashed=1;fontSize=14;rounded=0;entryX=1;entryY=0.5;entryDx=0;entryDy=0;exitX=0;exitY=0.5;exitDx=0;exitDy=0;" parent="1" source="IFoo-nwhp-qmNw-mQAHe-63" target="IFoo-nwhp-qmNw-mQAHe-62" edge="1">
                    <mxGeometry width="60" height="60" relative="1" as="geometry">
                        <mxPoint x="290" y="380" as="sourcePoint"/>
                        <mxPoint x="350" y="320" as="targetPoint"/>
                    </mxGeometry>
                </mxCell>
                <mxCell id="IFoo-nwhp-qmNw-mQAHe-82" value="&lt;font style=&quot;font-size: 8px;&quot;&gt;&amp;lt;&amp;lt;include&amp;gt;&amp;gt;&lt;/font&gt;" style="edgeLabel;html=1;align=center;verticalAlign=middle;resizable=0;points=[];" parent="IFoo-nwhp-qmNw-mQAHe-81" vertex="1" connectable="0">
                    <mxGeometry x="-0.1464" y="1" relative="1" as="geometry">
                        <mxPoint x="-4" y="-1" as="offset"/>
                    </mxGeometry>
                </mxCell>
                <mxCell id="IFoo-nwhp-qmNw-mQAHe-83" value="" style="html=1;labelBackgroundColor=#ffffff;startArrow=none;startFill=0;startSize=6;endArrow=classic;endFill=1;endSize=6;jettySize=auto;orthogonalLoop=1;strokeWidth=1;dashed=1;fontSize=14;rounded=0;entryX=1;entryY=0.5;entryDx=0;entryDy=0;exitX=0;exitY=0.5;exitDx=0;exitDy=0;" parent="1" source="IFoo-nwhp-qmNw-mQAHe-80" target="IFoo-nwhp-qmNw-mQAHe-79" edge="1">
                    <mxGeometry width="60" height="60" relative="1" as="geometry">
                        <mxPoint x="469" y="300" as="sourcePoint"/>
                        <mxPoint x="397" y="300" as="targetPoint"/>
                    </mxGeometry>
                </mxCell>
                <mxCell id="IFoo-nwhp-qmNw-mQAHe-84" value="&lt;font style=&quot;font-size: 8px;&quot;&gt;&amp;lt;&amp;lt;include&amp;gt;&amp;gt;&lt;/font&gt;" style="edgeLabel;html=1;align=center;verticalAlign=middle;resizable=0;points=[];" parent="IFoo-nwhp-qmNw-mQAHe-83" vertex="1" connectable="0">
                    <mxGeometry x="-0.125" y="1" relative="1" as="geometry">
                        <mxPoint y="-1" as="offset"/>
                    </mxGeometry>
                </mxCell>
                <mxCell id="IFoo-nwhp-qmNw-mQAHe-85" value="" style="html=1;labelBackgroundColor=#ffffff;startArrow=none;startFill=0;startSize=6;endArrow=classic;endFill=1;endSize=6;jettySize=auto;orthogonalLoop=1;strokeWidth=1;dashed=1;fontSize=14;rounded=0;entryX=1;entryY=0.5;entryDx=0;entryDy=0;exitX=0;exitY=0.5;exitDx=0;exitDy=0;" parent="1" source="IFoo-nwhp-qmNw-mQAHe-67" target="IFoo-nwhp-qmNw-mQAHe-66" edge="1">
                    <mxGeometry width="60" height="60" relative="1" as="geometry">
                        <mxPoint x="469" y="448" as="sourcePoint"/>
                        <mxPoint x="397" y="448" as="targetPoint"/>
                    </mxGeometry>
                </mxCell>
                <mxCell id="IFoo-nwhp-qmNw-mQAHe-86" value="&lt;font style=&quot;font-size: 8px;&quot;&gt;&amp;lt;&amp;lt;include&amp;gt;&amp;gt;&lt;/font&gt;" style="edgeLabel;html=1;align=center;verticalAlign=middle;resizable=0;points=[];" parent="IFoo-nwhp-qmNw-mQAHe-85" vertex="1" connectable="0">
                    <mxGeometry x="-0.1867" y="-1" relative="1" as="geometry">
                        <mxPoint x="-3" as="offset"/>
                    </mxGeometry>
                </mxCell>
                <mxCell id="IFoo-nwhp-qmNw-mQAHe-87" value="" style="html=1;labelBackgroundColor=#ffffff;startArrow=none;startFill=0;startSize=6;endArrow=classic;endFill=1;endSize=6;jettySize=auto;orthogonalLoop=1;strokeWidth=1;dashed=1;fontSize=14;rounded=0;entryX=0;entryY=0.5;entryDx=0;entryDy=0;exitX=1;exitY=0.5;exitDx=0;exitDy=0;" parent="1" source="IFoo-nwhp-qmNw-mQAHe-71" target="IFoo-nwhp-qmNw-mQAHe-73" edge="1">
                    <mxGeometry width="60" height="60" relative="1" as="geometry">
                        <mxPoint x="468" y="585" as="sourcePoint"/>
                        <mxPoint x="397" y="585" as="targetPoint"/>
                    </mxGeometry>
                </mxCell>
                <mxCell id="IFoo-nwhp-qmNw-mQAHe-88" value="&lt;font style=&quot;font-size: 8px;&quot;&gt;&amp;lt;&amp;lt;include&amp;gt;&amp;gt;&lt;/font&gt;" style="edgeLabel;html=1;align=center;verticalAlign=middle;resizable=0;points=[];" parent="IFoo-nwhp-qmNw-mQAHe-87" vertex="1" connectable="0">
                    <mxGeometry x="-0.1727" relative="1" as="geometry">
                        <mxPoint x="5" as="offset"/>
                    </mxGeometry>
                </mxCell>
                <mxCell id="IFoo-nwhp-qmNw-mQAHe-89" value="" style="endArrow=classic;html=1;rounded=0;entryX=0;entryY=0.5;entryDx=0;entryDy=0;" parent="1" target="IFoo-nwhp-qmNw-mQAHe-58" edge="1">
                    <mxGeometry width="50" height="50" relative="1" as="geometry">
                        <mxPoint x="110" y="540" as="sourcePoint"/>
                        <mxPoint x="170" y="150" as="targetPoint"/>
                        <Array as="points">
                            <mxPoint x="200" y="133"/>
                        </Array>
                    </mxGeometry>
                </mxCell>
                <mxCell id="IFoo-nwhp-qmNw-mQAHe-91" value="" style="endArrow=classic;html=1;rounded=0;entryX=0;entryY=0.5;entryDx=0;entryDy=0;" parent="1" target="IFoo-nwhp-qmNw-mQAHe-62" edge="1">
                    <mxGeometry width="50" height="50" relative="1" as="geometry">
                        <mxPoint x="110" y="550" as="sourcePoint"/>
                        <mxPoint x="480" y="350" as="targetPoint"/>
                        <Array as="points">
                            <mxPoint x="200" y="290"/>
                        </Array>
                    </mxGeometry>
                </mxCell>
                <mxCell id="IFoo-nwhp-qmNw-mQAHe-92" value="" style="endArrow=classic;html=1;rounded=0;entryX=0;entryY=0.5;entryDx=0;entryDy=0;" parent="1" target="IFoo-nwhp-qmNw-mQAHe-79" edge="1">
                    <mxGeometry width="50" height="50" relative="1" as="geometry">
                        <mxPoint x="110" y="560" as="sourcePoint"/>
                        <mxPoint x="480" y="440" as="targetPoint"/>
                        <Array as="points">
                            <mxPoint x="170" y="440"/>
                        </Array>
                    </mxGeometry>
                </mxCell>
                <mxCell id="IFoo-nwhp-qmNw-mQAHe-93" value="" style="endArrow=classic;html=1;rounded=0;entryX=0;entryY=0.5;entryDx=0;entryDy=0;" parent="1" target="IFoo-nwhp-qmNw-mQAHe-66" edge="1">
                    <mxGeometry width="50" height="50" relative="1" as="geometry">
                        <mxPoint x="110" y="570" as="sourcePoint"/>
                        <mxPoint x="480" y="570" as="targetPoint"/>
                        <Array as="points">
                            <mxPoint x="190" y="575"/>
                        </Array>
                    </mxGeometry>
                </mxCell>
                <mxCell id="IFoo-nwhp-qmNw-mQAHe-94" value="" style="endArrow=classic;html=1;rounded=0;entryX=0;entryY=0.5;entryDx=0;entryDy=0;" parent="1" target="IFoo-nwhp-qmNw-mQAHe-70" edge="1">
                    <mxGeometry width="50" height="50" relative="1" as="geometry">
                        <mxPoint x="110" y="580" as="sourcePoint"/>
                        <mxPoint x="430" y="530" as="targetPoint"/>
                        <Array as="points">
                            <mxPoint x="210" y="730"/>
                        </Array>
                    </mxGeometry>
                </mxCell>
                <mxCell id="IFoo-nwhp-qmNw-mQAHe-95" value="" style="endArrow=classic;html=1;rounded=0;entryX=0;entryY=0.5;entryDx=0;entryDy=0;" parent="1" target="IFoo-nwhp-qmNw-mQAHe-71" edge="1">
                    <mxGeometry width="50" height="50" relative="1" as="geometry">
                        <mxPoint x="110" y="590" as="sourcePoint"/>
                        <mxPoint x="200" y="800" as="targetPoint"/>
                        <Array as="points">
                            <mxPoint x="200" y="800"/>
                        </Array>
                    </mxGeometry>
                </mxCell>
                <mxCell id="IFoo-nwhp-qmNw-mQAHe-96" value="" style="endArrow=classic;html=1;rounded=0;entryX=0;entryY=0.5;entryDx=0;entryDy=0;" parent="1" target="IFoo-nwhp-qmNw-mQAHe-72" edge="1">
                    <mxGeometry width="50" height="50" relative="1" as="geometry">
                        <mxPoint x="110" y="600" as="sourcePoint"/>
                        <mxPoint x="120" y="750" as="targetPoint"/>
                        <Array as="points">
                            <mxPoint x="160" y="870"/>
                        </Array>
                    </mxGeometry>
                </mxCell>
                <mxCell id="IFoo-nwhp-qmNw-mQAHe-97" value="" style="endArrow=classic;html=1;rounded=0;entryX=1;entryY=0.5;entryDx=0;entryDy=0;" parent="1" target="IFoo-nwhp-qmNw-mQAHe-63" edge="1">
                    <mxGeometry width="50" height="50" relative="1" as="geometry">
                        <mxPoint x="760" y="450" as="sourcePoint"/>
                        <mxPoint x="670" y="290" as="targetPoint"/>
                        <Array as="points">
                            <mxPoint x="680" y="290"/>
                        </Array>
                    </mxGeometry>
                </mxCell>
                <mxCell id="IFoo-nwhp-qmNw-mQAHe-98" value="" style="endArrow=classic;html=1;rounded=0;entryX=1;entryY=0.5;entryDx=0;entryDy=0;" parent="1" target="IFoo-nwhp-qmNw-mQAHe-80" edge="1">
                    <mxGeometry width="50" height="50" relative="1" as="geometry">
                        <mxPoint x="760" y="460" as="sourcePoint"/>
                        <mxPoint x="690" y="400" as="targetPoint"/>
                        <Array as="points">
                            <mxPoint x="690" y="440"/>
                        </Array>
                    </mxGeometry>
                </mxCell>
                <mxCell id="IFoo-nwhp-qmNw-mQAHe-99" value="" style="endArrow=classic;html=1;rounded=0;entryX=1;entryY=0.5;entryDx=0;entryDy=0;" parent="1" target="IFoo-nwhp-qmNw-mQAHe-67" edge="1">
                    <mxGeometry width="50" height="50" relative="1" as="geometry">
                        <mxPoint x="760" y="470" as="sourcePoint"/>
                        <mxPoint x="690" y="400" as="targetPoint"/>
                        <Array as="points">
                            <mxPoint x="650" y="575"/>
                        </Array>
                    </mxGeometry>
                </mxCell>
                <mxCell id="IFoo-nwhp-qmNw-mQAHe-100" value="" style="endArrow=classic;html=1;rounded=0;entryX=1;entryY=0.5;entryDx=0;entryDy=0;" parent="1" target="IFoo-nwhp-qmNw-mQAHe-73" edge="1">
                    <mxGeometry width="50" height="50" relative="1" as="geometry">
                        <mxPoint x="760" y="480" as="sourcePoint"/>
                        <mxPoint x="750" y="560" as="targetPoint"/>
                        <Array as="points">
                            <mxPoint x="660" y="800"/>
                        </Array>
                    </mxGeometry>
                </mxCell>
                <mxCell id="IFoo-nwhp-qmNw-mQAHe-101" value="" style="endArrow=classic;html=1;rounded=0;entryX=1;entryY=0.5;entryDx=0;entryDy=0;" parent="1" target="IFoo-nwhp-qmNw-mQAHe-75" edge="1">
                    <mxGeometry width="50" height="50" relative="1" as="geometry">
                        <mxPoint x="760" y="510" as="sourcePoint"/>
                        <mxPoint x="780" y="720" as="targetPoint"/>
                        <Array as="points">
                            <mxPoint x="680" y="870"/>
                        </Array>
                    </mxGeometry>
                </mxCell>
                <mxCell id="IFoo-nwhp-qmNw-mQAHe-102" value="" style="endArrow=classic;html=1;rounded=0;entryX=0.937;entryY=0.833;entryDx=0;entryDy=0;entryPerimeter=0;" parent="1" target="IFoo-nwhp-qmNw-mQAHe-73" edge="1">
                    <mxGeometry width="50" height="50" relative="1" as="geometry">
                        <mxPoint x="740" y="940" as="sourcePoint"/>
                        <mxPoint x="530" y="900" as="targetPoint"/>
                        <Array as="points">
                            <mxPoint x="670" y="820"/>
                        </Array>
                    </mxGeometry>
                </mxCell>
                <mxCell id="IFoo-nwhp-qmNw-mQAHe-103" value="" style="endArrow=classic;html=1;rounded=0;entryX=1;entryY=0.5;entryDx=0;entryDy=0;" parent="1" target="IFoo-nwhp-qmNw-mQAHe-74" edge="1">
                    <mxGeometry width="50" height="50" relative="1" as="geometry">
                        <mxPoint x="740" y="960" as="sourcePoint"/>
                        <mxPoint x="530" y="900" as="targetPoint"/>
                        <Array as="points">
                            <mxPoint x="690" y="1020"/>
                        </Array>
                    </mxGeometry>
                </mxCell>
                <mxCell id="IFoo-nwhp-qmNw-mQAHe-104" value="" style="endArrow=classic;html=1;rounded=0;entryX=1;entryY=0.5;entryDx=0;entryDy=0;" parent="1" target="IFoo-nwhp-qmNw-mQAHe-76" edge="1">
                    <mxGeometry width="50" height="50" relative="1" as="geometry">
                        <mxPoint x="740" y="950" as="sourcePoint"/>
                        <mxPoint x="530" y="900" as="targetPoint"/>
                        <Array as="points">
                            <mxPoint x="650" y="940"/>
                        </Array>
                    </mxGeometry>
                </mxCell>
                <mxCell id="IFoo-nwhp-qmNw-mQAHe-106" value="" style="endArrow=classic;html=1;rounded=0;entryX=0.955;entryY=0.273;entryDx=0;entryDy=0;entryPerimeter=0;" parent="1" target="IFoo-nwhp-qmNw-mQAHe-76" edge="1">
                    <mxGeometry width="50" height="50" relative="1" as="geometry">
                        <mxPoint x="770" y="510" as="sourcePoint"/>
                        <mxPoint x="670" y="920" as="targetPoint"/>
                        <Array as="points">
                            <mxPoint x="690" y="930"/>
                        </Array>
                    </mxGeometry>
                </mxCell>
                <mxCell id="UsMfCeNoBtnaCEHWh7NM-1" value="&lt;span style=&quot;font-size: 14px;&quot;&gt;UTM email and password&lt;/span&gt;" style="ellipse;whiteSpace=wrap;html=1;" vertex="1" parent="1">
                    <mxGeometry x="449.5" y="111.25" width="144" height="42.5" as="geometry"/>
                </mxCell>
                <mxCell id="UsMfCeNoBtnaCEHWh7NM-6" value="" style="endArrow=classic;html=1;rounded=0;entryX=1;entryY=1;entryDx=0;entryDy=0;" edge="1" parent="1" target="IFoo-nwhp-qmNw-mQAHe-58">
                    <mxGeometry width="50" height="50" relative="1" as="geometry">
                        <mxPoint x="760" y="420" as="sourcePoint"/>
                        <mxPoint x="288.00000000000273" y="142.5" as="targetPoint"/>
                        <Array as="points">
                            <mxPoint x="730" y="230"/>
                        </Array>
                    </mxGeometry>
                </mxCell>
                <mxCell id="UsMfCeNoBtnaCEHWh7NM-7" value="" style="endArrow=classic;html=1;rounded=0;entryX=0.5;entryY=1;entryDx=0;entryDy=0;" edge="1" parent="1" target="IFoo-nwhp-qmNw-mQAHe-58">
                    <mxGeometry width="50" height="50" relative="1" as="geometry">
                        <mxPoint x="740" y="920" as="sourcePoint"/>
                        <mxPoint x="370" y="140" as="targetPoint"/>
                        <Array as="points">
                            <mxPoint x="650" y="230"/>
                        </Array>
                    </mxGeometry>
                </mxCell>
                <mxCell id="UsMfCeNoBtnaCEHWh7NM-8" value="" style="html=1;labelBackgroundColor=#ffffff;startArrow=none;startFill=0;startSize=6;endArrow=classic;endFill=1;endSize=6;jettySize=auto;orthogonalLoop=1;strokeWidth=1;dashed=1;fontSize=14;rounded=0;entryX=1;entryY=0.5;entryDx=0;entryDy=0;" edge="1" parent="1">
                    <mxGeometry width="60" height="60" relative="1" as="geometry">
                        <mxPoint x="450" y="132" as="sourcePoint"/>
                        <mxPoint x="397.9999999999999" y="132.16" as="targetPoint"/>
                    </mxGeometry>
                </mxCell>
                <mxCell id="UsMfCeNoBtnaCEHWh7NM-9" value="&lt;font style=&quot;font-size: 8px;&quot;&gt;&amp;lt;&amp;lt;include&amp;gt;&amp;gt;&lt;/font&gt;" style="edgeLabel;html=1;align=center;verticalAlign=middle;resizable=0;points=[];" vertex="1" connectable="0" parent="UsMfCeNoBtnaCEHWh7NM-8">
                    <mxGeometry x="-0.1464" y="1" relative="1" as="geometry">
                        <mxPoint x="-4" y="-1" as="offset"/>
                    </mxGeometry>
                </mxCell>
            </root>
        </mxGraphModel>
    </diagram>
    <diagram id="I_W-1Ado2UAVlXa0YNgY" name="sequence">
        <mxGraphModel dx="1204" dy="636" grid="1" gridSize="10" guides="1" tooltips="1" connect="1" arrows="1" fold="1" page="1" pageScale="1" pageWidth="850" pageHeight="1100" math="0" shadow="0">
            <root>
                <mxCell id="0"/>
                <mxCell id="1" parent="0"/>
                <mxCell id="h7Gejlcexb0t6cI0SuQJ-1" value="" style="shape=umlLifeline;participant=umlActor;perimeter=lifelinePerimeter;whiteSpace=wrap;html=1;container=1;collapsible=0;recursiveResize=0;verticalAlign=top;spacingTop=36;outlineConnect=0;size=70;" parent="1" vertex="1">
                    <mxGeometry x="130" y="160" width="60" height="320" as="geometry"/>
                </mxCell>
                <mxCell id="h7Gejlcexb0t6cI0SuQJ-2" value="Student" style="text;html=1;align=center;verticalAlign=middle;resizable=0;points=[];autosize=1;strokeColor=none;fillColor=none;" parent="h7Gejlcexb0t6cI0SuQJ-1" vertex="1">
                    <mxGeometry y="50" width="60" height="30" as="geometry"/>
                </mxCell>
                <mxCell id="qiPOvh2lk15dKRivBSQ6-12" style="edgeStyle=none;shape=link;html=1;exitX=0.5;exitY=0;exitDx=0;exitDy=0;exitPerimeter=0;entryX=0.5;entryY=1;entryDx=0;entryDy=0;entryPerimeter=0;dashed=1;width=0;dashPattern=8 8;" parent="1" source="qiPOvh2lk15dKRivBSQ6-3" target="qiPOvh2lk15dKRivBSQ6-6" edge="1">
                    <mxGeometry relative="1" as="geometry">
                        <Array as="points"/>
                    </mxGeometry>
                </mxCell>
                <mxCell id="qiPOvh2lk15dKRivBSQ6-3" value="Event Registration System" style="shape=note;whiteSpace=wrap;html=1;backgroundOutline=1;darkOpacity=0.05;fillStyle=solid;direction=west;gradientDirection=north;shadow=1;size=20;pointerEvents=1;fillColor=#777F85;strokeColor=#23445d;" parent="1" vertex="1">
                    <mxGeometry x="300" y="130" width="140" height="60" as="geometry"/>
                </mxCell>
                <mxCell id="qiPOvh2lk15dKRivBSQ6-11" style="edgeStyle=none;shape=link;html=1;exitX=0.5;exitY=0;exitDx=0;exitDy=0;exitPerimeter=0;entryX=0.5;entryY=1;entryDx=0;entryDy=0;entryPerimeter=0;dashed=1;width=0;dashPattern=8 8;" parent="1" source="qiPOvh2lk15dKRivBSQ6-4" target="qiPOvh2lk15dKRivBSQ6-8" edge="1">
                    <mxGeometry relative="1" as="geometry"/>
                </mxCell>
                <mxCell id="qiPOvh2lk15dKRivBSQ6-4" value="Event Database" style="shape=note;whiteSpace=wrap;html=1;backgroundOutline=1;darkOpacity=0.05;fillStyle=solid;direction=west;gradientDirection=north;shadow=1;size=20;pointerEvents=1;fillColor=#777F85;strokeColor=#23445d;" parent="1" vertex="1">
                    <mxGeometry x="470" y="130" width="140" height="60" as="geometry"/>
                </mxCell>
                <mxCell id="qiPOvh2lk15dKRivBSQ6-13" style="edgeStyle=none;shape=link;html=1;exitX=0.5;exitY=0;exitDx=0;exitDy=0;exitPerimeter=0;entryX=0.5;entryY=1;entryDx=0;entryDy=0;entryPerimeter=0;dashed=1;width=0;dashPattern=8 8;" parent="1" source="qiPOvh2lk15dKRivBSQ6-5" target="qiPOvh2lk15dKRivBSQ6-9" edge="1">
                    <mxGeometry relative="1" as="geometry"/>
                </mxCell>
                <mxCell id="qiPOvh2lk15dKRivBSQ6-5" value="Event Management System" style="shape=note;whiteSpace=wrap;html=1;backgroundOutline=1;darkOpacity=0.05;fillStyle=solid;direction=west;gradientDirection=north;shadow=1;size=20;pointerEvents=1;fillColor=#777F85;strokeColor=#23445d;" parent="1" vertex="1">
                    <mxGeometry x="640" y="130" width="140" height="60" as="geometry"/>
                </mxCell>
                <mxCell id="qiPOvh2lk15dKRivBSQ6-6" value="Event Registration System" style="shape=note;whiteSpace=wrap;html=1;backgroundOutline=1;darkOpacity=0.05;fillStyle=solid;direction=west;gradientDirection=north;shadow=1;size=20;pointerEvents=1;fillColor=#777F85;strokeColor=#23445d;" parent="1" vertex="1">
                    <mxGeometry x="300" y="520" width="140" height="60" as="geometry"/>
                </mxCell>
                <mxCell id="qiPOvh2lk15dKRivBSQ6-7" value="Student" style="shape=umlActor;verticalLabelPosition=bottom;verticalAlign=top;html=1;outlineConnect=0;fillColor=#777F85;" parent="1" vertex="1">
                    <mxGeometry x="130" y="480" width="60" height="80" as="geometry"/>
                </mxCell>
                <mxCell id="qiPOvh2lk15dKRivBSQ6-8" value="Event Database" style="shape=note;whiteSpace=wrap;html=1;backgroundOutline=1;darkOpacity=0.05;fillStyle=solid;direction=west;gradientDirection=north;shadow=1;size=20;pointerEvents=1;fillColor=#777F85;strokeColor=#23445d;" parent="1" vertex="1">
                    <mxGeometry x="470" y="520" width="140" height="60" as="geometry"/>
                </mxCell>
                <mxCell id="qiPOvh2lk15dKRivBSQ6-9" value="Event Management System" style="shape=note;whiteSpace=wrap;html=1;backgroundOutline=1;darkOpacity=0.05;fillStyle=solid;direction=west;gradientDirection=north;shadow=1;size=20;pointerEvents=1;fillColor=#777F85;strokeColor=#23445d;" parent="1" vertex="1">
                    <mxGeometry x="640" y="520" width="140" height="60" as="geometry"/>
                </mxCell>
                <mxCell id="fDGB2EkEoPbhEdZEHAHa-4" value="" style="endArrow=classic;html=1;" parent="1" edge="1">
                    <mxGeometry width="50" height="50" relative="1" as="geometry">
                        <mxPoint x="370" y="300" as="sourcePoint"/>
                        <mxPoint x="540" y="300" as="targetPoint"/>
                    </mxGeometry>
                </mxCell>
                <mxCell id="fDGB2EkEoPbhEdZEHAHa-5" value="Requests event information" style="text;html=1;align=center;verticalAlign=middle;resizable=0;points=[];autosize=1;strokeColor=none;fillColor=none;" parent="1" vertex="1">
                    <mxGeometry x="370" y="270" width="170" height="30" as="geometry"/>
                </mxCell>
                <mxCell id="fDGB2EkEoPbhEdZEHAHa-6" value="Request an event registration" style="text;html=1;align=center;verticalAlign=middle;resizable=0;points=[];autosize=1;strokeColor=none;fillColor=none;" parent="1" vertex="1">
                    <mxGeometry x="175" y="370" width="180" height="30" as="geometry"/>
                </mxCell>
                <mxCell id="fDGB2EkEoPbhEdZEHAHa-7" value="" style="endArrow=classic;html=1;dashed=1;" parent="1" edge="1">
                    <mxGeometry width="50" height="50" relative="1" as="geometry">
                        <mxPoint x="540" y="330" as="sourcePoint"/>
                        <mxPoint x="370" y="330" as="targetPoint"/>
                    </mxGeometry>
                </mxCell>
                <mxCell id="fDGB2EkEoPbhEdZEHAHa-8" value="Sends event information" style="text;html=1;align=center;verticalAlign=middle;resizable=0;points=[];autosize=1;strokeColor=none;fillColor=none;" parent="1" vertex="1">
                    <mxGeometry x="380" y="300" width="150" height="30" as="geometry"/>
                </mxCell>
                <mxCell id="1xKr5TzjczEi5f9K8NnH-2" value="" style="endArrow=classic;html=1;entryX=0.497;entryY=1;entryDx=0;entryDy=0;entryPerimeter=0;" parent="1" edge="1">
                    <mxGeometry width="50" height="50" relative="1" as="geometry">
                        <mxPoint x="370" y="360" as="sourcePoint"/>
                        <mxPoint x="544.5799999999999" y="360" as="targetPoint"/>
                    </mxGeometry>
                </mxCell>
                <mxCell id="1xKr5TzjczEi5f9K8NnH-3" value="" style="endArrow=classic;html=1;dashed=1;" parent="1" edge="1">
                    <mxGeometry width="50" height="50" relative="1" as="geometry">
                        <mxPoint x="540" y="390" as="sourcePoint"/>
                        <mxPoint x="370" y="390" as="targetPoint"/>
                    </mxGeometry>
                </mxCell>
                <mxCell id="1xKr5TzjczEi5f9K8NnH-5" value="Send event status" style="text;html=1;align=center;verticalAlign=middle;resizable=0;points=[];autosize=1;strokeColor=none;fillColor=none;" parent="1" vertex="1">
                    <mxGeometry x="395" y="360" width="120" height="30" as="geometry"/>
                </mxCell>
                <mxCell id="-J2DZTb01Snr8ks8EQvd-1" value="" style="endArrow=classic;html=1;" parent="1" edge="1">
                    <mxGeometry width="50" height="50" relative="1" as="geometry">
                        <mxPoint x="370" y="460" as="sourcePoint"/>
                        <mxPoint x="710" y="460" as="targetPoint"/>
                    </mxGeometry>
                </mxCell>
                <mxCell id="-J2DZTb01Snr8ks8EQvd-2" value="" style="endArrow=classic;html=1;dashed=1;" parent="1" edge="1">
                    <mxGeometry width="50" height="50" relative="1" as="geometry">
                        <mxPoint x="710" y="490" as="sourcePoint"/>
                        <mxPoint x="370" y="490" as="targetPoint"/>
                    </mxGeometry>
                </mxCell>
                <mxCell id="-J2DZTb01Snr8ks8EQvd-3" value="Provide feedbacks" style="text;html=1;align=center;verticalAlign=middle;resizable=0;points=[];autosize=1;strokeColor=none;fillColor=none;" parent="1" vertex="1">
                    <mxGeometry x="480" y="430" width="120" height="30" as="geometry"/>
                </mxCell>
                <mxCell id="-J2DZTb01Snr8ks8EQvd-4" value="Sends an E-certificate" style="text;html=1;align=center;verticalAlign=middle;resizable=0;points=[];autosize=1;strokeColor=none;fillColor=none;" parent="1" vertex="1">
                    <mxGeometry x="470" y="460" width="140" height="30" as="geometry"/>
                </mxCell>
                <mxCell id="VoEav1gLr1VLBz2quWlK-1" value="" style="shape=umlActor;verticalLabelPosition=bottom;verticalAlign=top;html=1;outlineConnect=0;fillColor=#777F85;" parent="1" vertex="1">
                    <mxGeometry x="130" y="990" width="60" height="80" as="geometry"/>
                </mxCell>
                <mxCell id="VoEav1gLr1VLBz2quWlK-3" value="" style="shape=umlLifeline;participant=umlActor;perimeter=lifelinePerimeter;whiteSpace=wrap;html=1;container=1;collapsible=0;recursiveResize=0;verticalAlign=top;spacingTop=36;outlineConnect=0;size=70;" parent="1" vertex="1">
                    <mxGeometry x="130" y="640" width="70" height="350" as="geometry"/>
                </mxCell>
                <mxCell id="VoEav1gLr1VLBz2quWlK-4" value="JKM KTDI" style="text;html=1;align=center;verticalAlign=middle;resizable=0;points=[];autosize=1;strokeColor=none;fillColor=none;" parent="VoEav1gLr1VLBz2quWlK-3" vertex="1">
                    <mxGeometry x="-5" y="60" width="80" height="30" as="geometry"/>
                </mxCell>
                <mxCell id="PwWKMBaTjelPf_SKNxrm-1" value="JKM KTDI" style="text;html=1;align=center;verticalAlign=middle;resizable=0;points=[];autosize=1;strokeColor=none;fillColor=none;" parent="1" vertex="1">
                    <mxGeometry x="120" y="1060" width="80" height="30" as="geometry"/>
                </mxCell>
                <mxCell id="85SbIOC9UuRPtI0astSd-1" value="Event Management System" style="shape=note;whiteSpace=wrap;html=1;backgroundOutline=1;darkOpacity=0.05;fillStyle=solid;direction=west;gradientDirection=north;shadow=1;size=20;pointerEvents=1;fillColor=#777F85;strokeColor=#23445d;" parent="1" vertex="1">
                    <mxGeometry x="300" y="610" width="140" height="60" as="geometry"/>
                </mxCell>
                <mxCell id="85SbIOC9UuRPtI0astSd-2" value="Event Management System" style="shape=note;whiteSpace=wrap;html=1;backgroundOutline=1;darkOpacity=0.05;fillStyle=solid;direction=west;gradientDirection=north;shadow=1;size=20;pointerEvents=1;fillColor=#777F85;strokeColor=#23445d;" parent="1" vertex="1">
                    <mxGeometry x="300" y="1045" width="140" height="60" as="geometry"/>
                </mxCell>
                <mxCell id="85SbIOC9UuRPtI0astSd-4" value="Event Registration System" style="shape=note;whiteSpace=wrap;html=1;backgroundOutline=1;darkOpacity=0.05;fillStyle=solid;direction=west;gradientDirection=north;shadow=1;size=20;pointerEvents=1;fillColor=#777F85;strokeColor=#23445d;" parent="1" vertex="1">
                    <mxGeometry x="640" y="610" width="140" height="60" as="geometry"/>
                </mxCell>
                <mxCell id="85SbIOC9UuRPtI0astSd-5" value="Event Registration System" style="shape=note;whiteSpace=wrap;html=1;backgroundOutline=1;darkOpacity=0.05;fillStyle=solid;direction=west;gradientDirection=north;shadow=1;size=20;pointerEvents=1;fillColor=#777F85;strokeColor=#23445d;" parent="1" vertex="1">
                    <mxGeometry x="640" y="1045" width="140" height="60" as="geometry"/>
                </mxCell>
                <mxCell id="85SbIOC9UuRPtI0astSd-6" value="Event Database" style="shape=note;whiteSpace=wrap;html=1;backgroundOutline=1;darkOpacity=0.05;fillStyle=solid;direction=west;gradientDirection=north;shadow=1;size=20;pointerEvents=1;fillColor=#777F85;strokeColor=#23445d;" parent="1" vertex="1">
                    <mxGeometry x="470" y="610" width="140" height="60" as="geometry"/>
                </mxCell>
                <mxCell id="85SbIOC9UuRPtI0astSd-7" value="Event Database" style="shape=note;whiteSpace=wrap;html=1;backgroundOutline=1;darkOpacity=0.05;fillStyle=solid;direction=west;gradientDirection=north;shadow=1;size=20;pointerEvents=1;fillColor=#777F85;strokeColor=#23445d;" parent="1" vertex="1">
                    <mxGeometry x="470" y="1045" width="140" height="60" as="geometry"/>
                </mxCell>
                <mxCell id="OCGHfJ4noH0oM_fLl5FM-1" style="edgeStyle=none;shape=link;html=1;exitX=0.5;exitY=0;exitDx=0;exitDy=0;exitPerimeter=0;entryX=0.5;entryY=1;entryDx=0;entryDy=0;entryPerimeter=0;dashed=1;width=0;dashPattern=8 8;" parent="1" target="85SbIOC9UuRPtI0astSd-2" edge="1">
                    <mxGeometry relative="1" as="geometry">
                        <mxPoint x="369" y="670" as="sourcePoint"/>
                        <mxPoint x="369" y="1000" as="targetPoint"/>
                        <Array as="points"/>
                    </mxGeometry>
                </mxCell>
                <mxCell id="OCGHfJ4noH0oM_fLl5FM-2" style="edgeStyle=none;shape=link;html=1;exitX=0.5;exitY=0;exitDx=0;exitDy=0;exitPerimeter=0;entryX=0.5;entryY=1;entryDx=0;entryDy=0;entryPerimeter=0;dashed=1;width=0;dashPattern=8 8;startArrow=none;" parent="1" source="CBycpj-q-mSzN1dF-IRs-4" edge="1">
                    <mxGeometry relative="1" as="geometry">
                        <mxPoint x="539.5" y="670" as="sourcePoint"/>
                        <mxPoint x="540.5" y="1045" as="targetPoint"/>
                        <Array as="points"/>
                    </mxGeometry>
                </mxCell>
                <mxCell id="OCGHfJ4noH0oM_fLl5FM-3" style="edgeStyle=none;shape=link;html=1;exitX=0.5;exitY=0;exitDx=0;exitDy=0;exitPerimeter=0;entryX=0.5;entryY=1;entryDx=0;entryDy=0;entryPerimeter=0;dashed=1;width=0;dashPattern=8 8;" parent="1" edge="1">
                    <mxGeometry relative="1" as="geometry">
                        <mxPoint x="709.5" y="670" as="sourcePoint"/>
                        <mxPoint x="710.5" y="1045" as="targetPoint"/>
                        <Array as="points"/>
                    </mxGeometry>
                </mxCell>
                <mxCell id="kmPcf9PR4g1zeCNxWOMn-1" value="" style="endArrow=classic;html=1;" parent="1" edge="1">
                    <mxGeometry width="50" height="50" relative="1" as="geometry">
                        <mxPoint x="159.5" y="740" as="sourcePoint"/>
                        <mxPoint x="370" y="740" as="targetPoint"/>
                    </mxGeometry>
                </mxCell>
                <mxCell id="CBycpj-q-mSzN1dF-IRs-1" value="" style="endArrow=classic;html=1;" parent="1" edge="1">
                    <mxGeometry width="50" height="50" relative="1" as="geometry">
                        <mxPoint x="370" y="990" as="sourcePoint"/>
                        <mxPoint x="710" y="990" as="targetPoint"/>
                    </mxGeometry>
                </mxCell>
                <mxCell id="CBycpj-q-mSzN1dF-IRs-2" value="" style="endArrow=classic;html=1;dashed=1;" parent="1" edge="1">
                    <mxGeometry width="50" height="50" relative="1" as="geometry">
                        <mxPoint x="710" y="1020" as="sourcePoint"/>
                        <mxPoint x="370" y="1020" as="targetPoint"/>
                    </mxGeometry>
                </mxCell>
                <mxCell id="CBycpj-q-mSzN1dF-IRs-3" value="Stimulate E-certificate" style="text;html=1;align=center;verticalAlign=middle;resizable=0;points=[];autosize=1;strokeColor=none;fillColor=none;" parent="1" vertex="1">
                    <mxGeometry x="470" y="960" width="140" height="30" as="geometry"/>
                </mxCell>
                <mxCell id="Kis_hgBXtahyaDMtjf7x-1" value="" style="edgeStyle=none;shape=link;html=1;exitX=0.5;exitY=0;exitDx=0;exitDy=0;exitPerimeter=0;entryX=0.5;entryY=1;entryDx=0;entryDy=0;entryPerimeter=0;dashed=1;width=0;dashPattern=8 8;endArrow=none;" parent="1" target="CBycpj-q-mSzN1dF-IRs-4" edge="1">
                    <mxGeometry relative="1" as="geometry">
                        <mxPoint x="539.5" y="670" as="sourcePoint"/>
                        <mxPoint x="540.5" y="1045" as="targetPoint"/>
                        <Array as="points"/>
                    </mxGeometry>
                </mxCell>
                <mxCell id="CBycpj-q-mSzN1dF-IRs-4" value="Sends feedbacks" style="text;html=1;align=center;verticalAlign=middle;resizable=0;points=[];autosize=1;strokeColor=none;fillColor=none;" parent="1" vertex="1">
                    <mxGeometry x="480" y="990" width="120" height="30" as="geometry"/>
                </mxCell>
                <mxCell id="IV2F986tfy1yrWbShKiW-1" value="" style="endArrow=classic;html=1;" parent="1" edge="1">
                    <mxGeometry width="50" height="50" relative="1" as="geometry">
                        <mxPoint x="370" y="920" as="sourcePoint"/>
                        <mxPoint x="710" y="920" as="targetPoint"/>
                    </mxGeometry>
                </mxCell>
                <mxCell id="iOfv862TGGPe7iaPmU_n-1" value="" style="endArrow=classic;html=1;dashed=1;" parent="1" edge="1">
                    <mxGeometry width="50" height="50" relative="1" as="geometry">
                        <mxPoint x="710" y="950" as="sourcePoint"/>
                        <mxPoint x="370" y="950" as="targetPoint"/>
                    </mxGeometry>
                </mxCell>
                <mxCell id="5rXez6I4yxO-a0BY_0g2-1" value="Sends participants informations" style="text;html=1;align=center;verticalAlign=middle;resizable=0;points=[];autosize=1;strokeColor=none;fillColor=none;" parent="1" vertex="1">
                    <mxGeometry x="445" y="920" width="190" height="30" as="geometry"/>
                </mxCell>
                <mxCell id="mnO4RtbKPzVpmlUMtkYv-2" value="Publish an event registration" style="text;html=1;align=center;verticalAlign=middle;resizable=0;points=[];autosize=1;strokeColor=none;fillColor=none;" parent="1" vertex="1">
                    <mxGeometry x="455" y="890" width="170" height="30" as="geometry"/>
                </mxCell>
                <mxCell id="L3wKcMR4FG3IWfKYWV_S-1" value="Request event status" style="text;html=1;align=center;verticalAlign=middle;resizable=0;points=[];autosize=1;strokeColor=none;fillColor=none;" parent="1" vertex="1">
                    <mxGeometry x="385" y="330" width="140" height="30" as="geometry"/>
                </mxCell>
                <mxCell id="L3wKcMR4FG3IWfKYWV_S-2" value="Upload event status&amp;nbsp;" style="text;html=1;align=center;verticalAlign=middle;resizable=0;points=[];autosize=1;strokeColor=none;fillColor=none;" parent="1" vertex="1">
                    <mxGeometry x="390" y="820" width="130" height="30" as="geometry"/>
                </mxCell>
                <mxCell id="L3wKcMR4FG3IWfKYWV_S-3" value="" style="endArrow=classic;html=1;" parent="1" edge="1">
                    <mxGeometry width="50" height="50" relative="1" as="geometry">
                        <mxPoint x="370" y="850" as="sourcePoint"/>
                        <mxPoint x="540" y="850" as="targetPoint"/>
                    </mxGeometry>
                </mxCell>
                <mxCell id="-JpJquXZTLWfWDA00GSt-1" value="Update event progess&amp;nbsp;" style="text;html=1;align=center;verticalAlign=middle;resizable=0;points=[];autosize=1;strokeColor=none;fillColor=none;" parent="1" vertex="1">
                    <mxGeometry x="200" y="780" width="140" height="30" as="geometry"/>
                </mxCell>
                <mxCell id="-JpJquXZTLWfWDA00GSt-2" value="" style="endArrow=classic;html=1;" parent="1" edge="1">
                    <mxGeometry width="50" height="50" relative="1" as="geometry">
                        <mxPoint x="160" y="814.5" as="sourcePoint"/>
                        <mxPoint x="370" y="815" as="targetPoint"/>
                    </mxGeometry>
                </mxCell>
                <mxCell id="-JpJquXZTLWfWDA00GSt-4" value="" style="endArrow=classic;html=1;dashed=1;dashPattern=8 8;" parent="1" edge="1">
                    <mxGeometry width="50" height="50" relative="1" as="geometry">
                        <mxPoint x="370" y="840" as="sourcePoint"/>
                        <mxPoint x="170" y="840" as="targetPoint"/>
                    </mxGeometry>
                </mxCell>
                <mxCell id="-JpJquXZTLWfWDA00GSt-5" value="Check status for approvement" style="text;html=1;align=center;verticalAlign=middle;resizable=0;points=[];autosize=1;strokeColor=none;fillColor=none;" parent="1" vertex="1">
                    <mxGeometry x="175" y="810" width="180" height="30" as="geometry"/>
                </mxCell>
                <mxCell id="DlSE66tQeqdj2v8ZvI8I-1" value="" style="shape=umlLifeline;participant=umlActor;perimeter=lifelinePerimeter;whiteSpace=wrap;html=1;container=1;collapsible=0;recursiveResize=0;verticalAlign=top;spacingTop=36;outlineConnect=0;size=70;" parent="1" vertex="1">
                    <mxGeometry x="130" y="1140" width="75" height="350" as="geometry"/>
                </mxCell>
                <mxCell id="DlSE66tQeqdj2v8ZvI8I-2" value="KTDI Admin" style="text;html=1;align=center;verticalAlign=middle;resizable=0;points=[];autosize=1;strokeColor=none;fillColor=none;" parent="DlSE66tQeqdj2v8ZvI8I-1" vertex="1">
                    <mxGeometry x="-7.5" y="60" width="90" height="30" as="geometry"/>
                </mxCell>
                <mxCell id="DlSE66tQeqdj2v8ZvI8I-3" value="" style="shape=umlActor;verticalLabelPosition=bottom;verticalAlign=top;html=1;outlineConnect=0;fillColor=#777F85;" parent="1" vertex="1">
                    <mxGeometry x="137.5" y="1490" width="60" height="80" as="geometry"/>
                </mxCell>
                <mxCell id="DlSE66tQeqdj2v8ZvI8I-4" value="KTDI Admin" style="text;html=1;align=center;verticalAlign=middle;resizable=0;points=[];autosize=1;strokeColor=none;fillColor=none;" parent="1" vertex="1">
                    <mxGeometry x="122.5" y="1570" width="90" height="30" as="geometry"/>
                </mxCell>
                <mxCell id="DlSE66tQeqdj2v8ZvI8I-7" value="Event Management System" style="shape=note;whiteSpace=wrap;html=1;backgroundOutline=1;darkOpacity=0.05;fillStyle=solid;direction=west;gradientDirection=north;shadow=1;size=20;pointerEvents=1;fillColor=#777F85;strokeColor=#23445d;" parent="1" vertex="1">
                    <mxGeometry x="300" y="1130" width="140" height="60" as="geometry"/>
                </mxCell>
                <mxCell id="bx9uG6YKQcsDWRBe_jC3-1" value="Event Management System&amp;nbsp;" style="shape=note;whiteSpace=wrap;html=1;backgroundOutline=1;darkOpacity=0.05;fillStyle=solid;direction=west;gradientDirection=north;shadow=1;size=20;pointerEvents=1;fillColor=#777F85;strokeColor=#23445d;" parent="1" vertex="1">
                    <mxGeometry x="300" y="1550" width="140" height="60" as="geometry"/>
                </mxCell>
                <mxCell id="bx9uG6YKQcsDWRBe_jC3-2" style="edgeStyle=none;shape=link;html=1;exitX=0.5;exitY=0;exitDx=0;exitDy=0;exitPerimeter=0;dashed=1;width=0;dashPattern=8 8;entryX=0.5;entryY=1;entryDx=0;entryDy=0;entryPerimeter=0;" parent="1" target="bx9uG6YKQcsDWRBe_jC3-1" edge="1">
                    <mxGeometry relative="1" as="geometry">
                        <mxPoint x="370" y="1190" as="sourcePoint"/>
                        <mxPoint x="371" y="1520" as="targetPoint"/>
                        <Array as="points"/>
                    </mxGeometry>
                </mxCell>
                <mxCell id="bx9uG6YKQcsDWRBe_jC3-4" value="" style="endArrow=classic;html=1;" parent="1" edge="1">
                    <mxGeometry width="50" height="50" relative="1" as="geometry">
                        <mxPoint x="169.75" y="1440" as="sourcePoint"/>
                        <mxPoint x="370.25" y="1440" as="targetPoint"/>
                    </mxGeometry>
                </mxCell>
                <mxCell id="bx9uG6YKQcsDWRBe_jC3-5" value="Update status approvement" style="text;html=1;align=center;verticalAlign=middle;resizable=0;points=[];autosize=1;strokeColor=none;fillColor=none;" parent="1" vertex="1">
                    <mxGeometry x="185" y="1410" width="170" height="30" as="geometry"/>
                </mxCell>
                <mxCell id="g34WKJdUwy24zNG4vkwY-1" value="Sends the event progress" style="text;html=1;align=center;verticalAlign=middle;resizable=0;points=[];autosize=1;strokeColor=none;fillColor=none;" parent="1" vertex="1">
                    <mxGeometry x="190" y="1270" width="160" height="30" as="geometry"/>
                </mxCell>
                <mxCell id="g34WKJdUwy24zNG4vkwY-2" value="" style="endArrow=classic;html=1;dashed=1;dashPattern=8 8;" parent="1" edge="1">
                    <mxGeometry width="50" height="50" relative="1" as="geometry">
                        <mxPoint x="370" y="1300" as="sourcePoint"/>
                        <mxPoint x="170" y="1300" as="targetPoint"/>
                    </mxGeometry>
                </mxCell>
                <mxCell id="g1hJcaBUTkN7ltyfIVYj-1" value="" style="endArrow=classic;html=1;" parent="1" edge="1">
                    <mxGeometry width="50" height="50" relative="1" as="geometry">
                        <mxPoint x="375" y="889" as="sourcePoint"/>
                        <mxPoint x="545" y="889" as="targetPoint"/>
                    </mxGeometry>
                </mxCell>
                <mxCell id="g1hJcaBUTkN7ltyfIVYj-2" value="Publish event information" style="text;html=1;align=center;verticalAlign=middle;resizable=0;points=[];autosize=1;strokeColor=none;fillColor=none;" parent="1" vertex="1">
                    <mxGeometry x="380" y="860" width="160" height="30" as="geometry"/>
                </mxCell>
                <mxCell id="W-_qfx7xC_-i9qxkmuIu-1" value="" style="endArrow=classic;html=1;" parent="1" edge="1">
                    <mxGeometry width="50" height="50" relative="1" as="geometry">
                        <mxPoint x="169.75" y="1270" as="sourcePoint"/>
                        <mxPoint x="370.25" y="1270" as="targetPoint"/>
                    </mxGeometry>
                </mxCell>
                <mxCell id="W-_qfx7xC_-i9qxkmuIu-2" value="Monitor the event progress" style="text;html=1;align=center;verticalAlign=middle;resizable=0;points=[];autosize=1;strokeColor=none;fillColor=none;" parent="1" vertex="1">
                    <mxGeometry x="185" y="1240" width="170" height="30" as="geometry"/>
                </mxCell>
                <mxCell id="zOWAog5JYEEEpH7OYSle-1" value="" style="endArrow=classic;html=1;" parent="1" edge="1">
                    <mxGeometry width="50" height="50" relative="1" as="geometry">
                        <mxPoint x="174.5" y="1350" as="sourcePoint"/>
                        <mxPoint x="375" y="1350" as="targetPoint"/>
                    </mxGeometry>
                </mxCell>
                <mxCell id="zOWAog5JYEEEpH7OYSle-2" value="Manage the uploaded documents" style="text;html=1;align=center;verticalAlign=middle;resizable=0;points=[];autosize=1;strokeColor=none;fillColor=none;" parent="1" vertex="1">
                    <mxGeometry x="170" y="1320" width="200" height="30" as="geometry"/>
                </mxCell>
                <mxCell id="zOWAog5JYEEEpH7OYSle-3" value="" style="endArrow=classic;html=1;dashed=1;dashPattern=8 8;" parent="1" edge="1">
                    <mxGeometry width="50" height="50" relative="1" as="geometry">
                        <mxPoint x="370" y="1380" as="sourcePoint"/>
                        <mxPoint x="170" y="1380" as="targetPoint"/>
                    </mxGeometry>
                </mxCell>
                <mxCell id="zOWAog5JYEEEpH7OYSle-4" value="Shows the uploaded documents" style="text;html=1;align=center;verticalAlign=middle;resizable=0;points=[];autosize=1;strokeColor=none;fillColor=none;" parent="1" vertex="1">
                    <mxGeometry x="175" y="1350" width="190" height="30" as="geometry"/>
                </mxCell>
                <mxCell id="zOWAog5JYEEEpH7OYSle-5" value="" style="endArrow=classic;html=1;" parent="1" edge="1">
                    <mxGeometry width="50" height="50" relative="1" as="geometry">
                        <mxPoint x="159.5" y="770" as="sourcePoint"/>
                        <mxPoint x="370" y="770" as="targetPoint"/>
                    </mxGeometry>
                </mxCell>
                <mxCell id="zOWAog5JYEEEpH7OYSle-6" value="Upload documents" style="text;html=1;align=center;verticalAlign=middle;resizable=0;points=[];autosize=1;strokeColor=none;fillColor=none;" parent="1" vertex="1">
                    <mxGeometry x="205" y="740" width="120" height="30" as="geometry"/>
                </mxCell>
                <mxCell id="zOWAog5JYEEEpH7OYSle-7" value="Upload the ongoing &lt;br&gt;or upcoming events" style="text;html=1;align=center;verticalAlign=middle;resizable=0;points=[];autosize=1;strokeColor=none;fillColor=none;" parent="1" vertex="1">
                    <mxGeometry x="200" y="700" width="130" height="40" as="geometry"/>
                </mxCell>
                <mxCell id="zOWAog5JYEEEpH7OYSle-8" value="" style="endArrow=classic;html=1;" parent="1" edge="1">
                    <mxGeometry width="50" height="50" relative="1" as="geometry">
                        <mxPoint x="159.75" y="400" as="sourcePoint"/>
                        <mxPoint x="370.25" y="400" as="targetPoint"/>
                    </mxGeometry>
                </mxCell>
                <mxCell id="zOWAog5JYEEEpH7OYSle-9" value="" style="endArrow=classic;html=1;" parent="1" edge="1">
                    <mxGeometry width="50" height="50" relative="1" as="geometry">
                        <mxPoint x="159.5" y="260" as="sourcePoint"/>
                        <mxPoint x="370" y="260" as="targetPoint"/>
                    </mxGeometry>
                </mxCell>
                <mxCell id="zOWAog5JYEEEpH7OYSle-10" value="View Events" style="text;html=1;align=center;verticalAlign=middle;resizable=0;points=[];autosize=1;strokeColor=none;fillColor=none;" parent="1" vertex="1">
                    <mxGeometry x="220" y="230" width="90" height="30" as="geometry"/>
                </mxCell>
                <mxCell id="zOWAog5JYEEEpH7OYSle-11" value="" style="endArrow=classic;html=1;" parent="1" edge="1">
                    <mxGeometry width="50" height="50" relative="1" as="geometry">
                        <mxPoint x="370" y="420" as="sourcePoint"/>
                        <mxPoint x="710" y="420" as="targetPoint"/>
                    </mxGeometry>
                </mxCell>
                <mxCell id="zOWAog5JYEEEpH7OYSle-12" value="Register an event" style="text;html=1;align=center;verticalAlign=middle;resizable=0;points=[];autosize=1;strokeColor=none;fillColor=none;" parent="1" vertex="1">
                    <mxGeometry x="470" y="390" width="120" height="30" as="geometry"/>
                </mxCell>
            </root>
        </mxGraphModel>
    </diagram>
    <diagram id="96eBg8_Hl_f8V-2cMZ9O" name="activity">
        <mxGraphModel dx="1505" dy="795" grid="1" gridSize="15" guides="1" tooltips="1" connect="1" arrows="1" fold="1" page="1" pageScale="1" pageWidth="850" pageHeight="1100" math="0" shadow="0">
            <root>
                <mxCell id="0"/>
                <mxCell id="1" parent="0"/>
                <mxCell id="CTPY0rNln9jX_LGGVLBt-2" value="Student" style="swimlane;whiteSpace=wrap;fillColor=#e51400;fontColor=#ffffff;strokeColor=#B20000;" parent="1" vertex="1">
                    <mxGeometry x="105" y="128" width="339.5" height="892" as="geometry"/>
                </mxCell>
                <mxCell id="CTPY0rNln9jX_LGGVLBt-3" value="" style="ellipse;shape=startState;fillColor=#000000;strokeColor=#ff0000;" parent="CTPY0rNln9jX_LGGVLBt-2" vertex="1">
                    <mxGeometry x="60" y="32" width="30" height="30" as="geometry"/>
                </mxCell>
                <mxCell id="CTPY0rNln9jX_LGGVLBt-4" value="" style="edgeStyle=elbowEdgeStyle;elbow=horizontal;verticalAlign=bottom;endArrow=open;endSize=8;strokeColor=#FF0000;endFill=1;rounded=0;entryX=0.513;entryY=-0.047;entryDx=0;entryDy=0;entryPerimeter=0;" parent="CTPY0rNln9jX_LGGVLBt-2" source="CTPY0rNln9jX_LGGVLBt-3" target="CTPY0rNln9jX_LGGVLBt-5" edge="1">
                    <mxGeometry x="60" y="32" as="geometry">
                        <mxPoint x="75" y="102" as="targetPoint"/>
                    </mxGeometry>
                </mxCell>
                <mxCell id="VLDderpCGW6C1Z4-PrLB-1" style="edgeStyle=none;html=1;fillColor=#e51400;strokeColor=#B20000;entryX=0.494;entryY=-0.008;entryDx=0;entryDy=0;entryPerimeter=0;" parent="CTPY0rNln9jX_LGGVLBt-2" source="CTPY0rNln9jX_LGGVLBt-5" target="CTPY0rNln9jX_LGGVLBt-6" edge="1">
                    <mxGeometry relative="1" as="geometry"/>
                </mxCell>
                <mxCell id="CTPY0rNln9jX_LGGVLBt-5" value="Log in to the system" style="" parent="CTPY0rNln9jX_LGGVLBt-2" vertex="1">
                    <mxGeometry x="20" y="112" width="110" height="50" as="geometry"/>
                </mxCell>
                <mxCell id="VLDderpCGW6C1Z4-PrLB-2" style="edgeStyle=none;html=1;entryX=0.505;entryY=0.019;entryDx=0;entryDy=0;entryPerimeter=0;fillColor=#e51400;strokeColor=#B20000;" parent="CTPY0rNln9jX_LGGVLBt-2" source="CTPY0rNln9jX_LGGVLBt-6" target="CTPY0rNln9jX_LGGVLBt-8" edge="1">
                    <mxGeometry relative="1" as="geometry"/>
                </mxCell>
                <mxCell id="CTPY0rNln9jX_LGGVLBt-6" value="View ongoing &#10;and upcoming&#10; events" style="" parent="CTPY0rNln9jX_LGGVLBt-2" vertex="1">
                    <mxGeometry x="20" y="202" width="115" height="48" as="geometry"/>
                </mxCell>
                <mxCell id="QzmWKm78spGW7W_lZG-n-24" style="edgeStyle=none;html=1;fillColor=#e51400;strokeColor=#B20000;" parent="CTPY0rNln9jX_LGGVLBt-2" source="CTPY0rNln9jX_LGGVLBt-8" edge="1">
                    <mxGeometry relative="1" as="geometry">
                        <mxPoint x="78" y="397" as="targetPoint"/>
                    </mxGeometry>
                </mxCell>
                <mxCell id="CTPY0rNln9jX_LGGVLBt-8" value="Register to join &#10;upcoming events" style="" parent="CTPY0rNln9jX_LGGVLBt-2" vertex="1">
                    <mxGeometry x="20" y="302" width="115" height="45" as="geometry"/>
                </mxCell>
                <mxCell id="AoAhBxLaKqc570oHIpco-1" value="Attendance &#10;and feedback &#10; at the end of event" style="" parent="CTPY0rNln9jX_LGGVLBt-2" vertex="1">
                    <mxGeometry x="15" y="398" width="125" height="48" as="geometry"/>
                </mxCell>
                <mxCell id="9unHEtIPezjj2xvubiNk-2" value="Receive &#10;autogenerated &#10;certificate" style="" parent="CTPY0rNln9jX_LGGVLBt-2" vertex="1">
                    <mxGeometry x="25" y="482" width="110" height="50" as="geometry"/>
                </mxCell>
                <mxCell id="QzmWKm78spGW7W_lZG-n-36" style="edgeStyle=none;html=1;fillColor=#e51400;strokeColor=#B20000;" parent="CTPY0rNln9jX_LGGVLBt-2" source="QzmWKm78spGW7W_lZG-n-33" edge="1">
                    <mxGeometry relative="1" as="geometry">
                        <mxPoint x="135" y="232" as="targetPoint"/>
                        <Array as="points">
                            <mxPoint x="210" y="437"/>
                            <mxPoint x="210" y="232"/>
                        </Array>
                    </mxGeometry>
                </mxCell>
                <mxCell id="QzmWKm78spGW7W_lZG-n-33" value="Event&lt;br&gt;plan" style="rhombus;whiteSpace=wrap;html=1;" parent="CTPY0rNln9jX_LGGVLBt-2" vertex="1">
                    <mxGeometry x="250" y="403.5" width="69.5" height="67" as="geometry"/>
                </mxCell>
                <mxCell id="QzmWKm78spGW7W_lZG-n-37" value="ok" style="text;strokeColor=none;align=center;fillColor=none;html=1;verticalAlign=middle;whiteSpace=wrap;rounded=0;" parent="CTPY0rNln9jX_LGGVLBt-2" vertex="1">
                    <mxGeometry x="210" y="407" width="60" height="30" as="geometry"/>
                </mxCell>
                <mxCell id="CTPY0rNln9jX_LGGVLBt-11" value="JKM" style="swimlane;whiteSpace=wrap;fillColor=#e3c800;fontColor=#000000;strokeColor=#B09500;" parent="1" vertex="1">
                    <mxGeometry x="444.5" y="128" width="368.25" height="892" as="geometry"/>
                </mxCell>
                <mxCell id="CTPY0rNln9jX_LGGVLBt-12" value="" style="ellipse;shape=startState;fillColor=#000000;strokeColor=#ff0000;" parent="CTPY0rNln9jX_LGGVLBt-11" vertex="1">
                    <mxGeometry x="70" y="40" width="30" height="30" as="geometry"/>
                </mxCell>
                <mxCell id="CTPY0rNln9jX_LGGVLBt-13" value="" style="edgeStyle=elbowEdgeStyle;elbow=horizontal;verticalAlign=bottom;endArrow=open;endSize=8;strokeColor=#FF0000;endFill=1;rounded=0;entryX=0.512;entryY=0.033;entryDx=0;entryDy=0;entryPerimeter=0;" parent="CTPY0rNln9jX_LGGVLBt-11" source="CTPY0rNln9jX_LGGVLBt-12" target="CTPY0rNln9jX_LGGVLBt-14" edge="1">
                    <mxGeometry x="40" y="20" as="geometry">
                        <mxPoint x="55" y="90" as="targetPoint"/>
                    </mxGeometry>
                </mxCell>
                <mxCell id="-nbr93kysCliQCFmGwWs-4" style="edgeStyle=none;html=1;entryX=0.498;entryY=0.005;entryDx=0;entryDy=0;entryPerimeter=0;fillColor=#e51400;strokeColor=#B20000;" parent="CTPY0rNln9jX_LGGVLBt-11" source="CTPY0rNln9jX_LGGVLBt-14" target="f-hrMbyE-b2BE6UPETHn-2" edge="1">
                    <mxGeometry relative="1" as="geometry"/>
                </mxCell>
                <mxCell id="CTPY0rNln9jX_LGGVLBt-14" value="Log in to the system" style="" parent="CTPY0rNln9jX_LGGVLBt-11" vertex="1">
                    <mxGeometry x="20" y="110" width="130" height="50" as="geometry"/>
                </mxCell>
                <mxCell id="QzmWKm78spGW7W_lZG-n-5" style="edgeStyle=none;html=1;entryX=0.565;entryY=0;entryDx=0;entryDy=0;entryPerimeter=0;fillColor=#e51400;strokeColor=#B20000;" parent="CTPY0rNln9jX_LGGVLBt-11" source="CTPY0rNln9jX_LGGVLBt-15" target="CTPY0rNln9jX_LGGVLBt-17" edge="1">
                    <mxGeometry relative="1" as="geometry"/>
                </mxCell>
                <mxCell id="CTPY0rNln9jX_LGGVLBt-15" value="Upload upcoming &#10;event" style="direction=south;" parent="CTPY0rNln9jX_LGGVLBt-11" vertex="1">
                    <mxGeometry x="20.5" y="337" width="134.5" height="49.25" as="geometry"/>
                </mxCell>
                <mxCell id="CTPY0rNln9jX_LGGVLBt-17" value="Update&#10; event progress" style="" parent="CTPY0rNln9jX_LGGVLBt-11" vertex="1">
                    <mxGeometry x="20" y="412" width="120" height="50" as="geometry"/>
                </mxCell>
                <mxCell id="-nbr93kysCliQCFmGwWs-5" style="edgeStyle=none;html=1;entryX=0.498;entryY=-0.007;entryDx=0;entryDy=0;entryPerimeter=0;fillColor=#e51400;strokeColor=#B20000;" parent="CTPY0rNln9jX_LGGVLBt-11" source="f-hrMbyE-b2BE6UPETHn-2" target="f-hrMbyE-b2BE6UPETHn-1" edge="1">
                    <mxGeometry relative="1" as="geometry"/>
                </mxCell>
                <mxCell id="f-hrMbyE-b2BE6UPETHn-2" value="Distribute task " style="" parent="CTPY0rNln9jX_LGGVLBt-11" vertex="1">
                    <mxGeometry x="20" y="187" width="130" height="50" as="geometry"/>
                </mxCell>
                <mxCell id="QzmWKm78spGW7W_lZG-n-4" style="edgeStyle=none;html=1;entryX=0;entryY=0.5;entryDx=0;entryDy=0;entryPerimeter=0;fillColor=#e51400;strokeColor=#B20000;" parent="CTPY0rNln9jX_LGGVLBt-11" source="f-hrMbyE-b2BE6UPETHn-1" target="CTPY0rNln9jX_LGGVLBt-15" edge="1">
                    <mxGeometry relative="1" as="geometry"/>
                </mxCell>
                <mxCell id="f-hrMbyE-b2BE6UPETHn-1" value="View task distribute" style="" parent="CTPY0rNln9jX_LGGVLBt-11" vertex="1">
                    <mxGeometry x="20" y="262" width="130" height="50" as="geometry"/>
                </mxCell>
                <mxCell id="QzmWKm78spGW7W_lZG-n-30" value="" style="edgeStyle=none;html=1;fillColor=#e51400;strokeColor=#B20000;" parent="CTPY0rNln9jX_LGGVLBt-11" source="9unHEtIPezjj2xvubiNk-3" edge="1">
                    <mxGeometry relative="1" as="geometry">
                        <mxPoint x="125.5" y="757" as="targetPoint"/>
                    </mxGeometry>
                </mxCell>
                <mxCell id="9unHEtIPezjj2xvubiNk-3" value="View registered students" style="" parent="CTPY0rNln9jX_LGGVLBt-11" vertex="1">
                    <mxGeometry x="20.5" y="697" width="210" height="42" as="geometry"/>
                </mxCell>
                <mxCell id="9unHEtIPezjj2xvubiNk-4" value="View feedback" style="" parent="CTPY0rNln9jX_LGGVLBt-11" vertex="1">
                    <mxGeometry x="20" y="765" width="210" height="34" as="geometry"/>
                </mxCell>
                <mxCell id="QzmWKm78spGW7W_lZG-n-7" value="Upload oncoming &#10;event" style="direction=south;" parent="CTPY0rNln9jX_LGGVLBt-11" vertex="1">
                    <mxGeometry x="20" y="626.25" width="134.5" height="49.25" as="geometry"/>
                </mxCell>
                <mxCell id="QzmWKm78spGW7W_lZG-n-10" style="edgeStyle=none;html=1;fillColor=#e51400;strokeColor=#B20000;" parent="CTPY0rNln9jX_LGGVLBt-11" source="QzmWKm78spGW7W_lZG-n-6" edge="1">
                    <mxGeometry relative="1" as="geometry">
                        <mxPoint x="140.5" y="437" as="targetPoint"/>
                    </mxGeometry>
                </mxCell>
                <mxCell id="QzmWKm78spGW7W_lZG-n-11" style="edgeStyle=none;html=1;entryX=0.736;entryY=-0.031;entryDx=0;entryDy=0;entryPerimeter=0;fillColor=#e51400;strokeColor=#B20000;" parent="CTPY0rNln9jX_LGGVLBt-11" source="QzmWKm78spGW7W_lZG-n-6" target="CTPY0rNln9jX_LGGVLBt-15" edge="1">
                    <mxGeometry relative="1" as="geometry">
                        <Array as="points">
                            <mxPoint x="302.5" y="373"/>
                        </Array>
                    </mxGeometry>
                </mxCell>
                <mxCell id="QzmWKm78spGW7W_lZG-n-6" value="Proposal approved?" style="rhombus;whiteSpace=wrap;html=1;" parent="CTPY0rNln9jX_LGGVLBt-11" vertex="1">
                    <mxGeometry x="260.5" y="395" width="84.5" height="84" as="geometry"/>
                </mxCell>
                <mxCell id="QzmWKm78spGW7W_lZG-n-12" value="No" style="text;strokeColor=none;align=center;fillColor=none;html=1;verticalAlign=middle;whiteSpace=wrap;rounded=0;" parent="CTPY0rNln9jX_LGGVLBt-11" vertex="1">
                    <mxGeometry x="245.5" y="382" width="60" height="30" as="geometry"/>
                </mxCell>
                <mxCell id="QzmWKm78spGW7W_lZG-n-14" value="Yes" style="text;strokeColor=none;align=center;fillColor=none;html=1;verticalAlign=middle;whiteSpace=wrap;rounded=0;" parent="CTPY0rNln9jX_LGGVLBt-11" vertex="1">
                    <mxGeometry x="215.5" y="442" width="60" height="30" as="geometry"/>
                </mxCell>
                <mxCell id="QzmWKm78spGW7W_lZG-n-15" style="edgeStyle=none;html=1;fillColor=#e51400;strokeColor=#B20000;" parent="CTPY0rNln9jX_LGGVLBt-11" edge="1">
                    <mxGeometry relative="1" as="geometry">
                        <mxPoint x="380.5" y="532" as="targetPoint"/>
                        <mxPoint x="80.5" y="462" as="sourcePoint"/>
                        <Array as="points">
                            <mxPoint x="80.5" y="532"/>
                        </Array>
                    </mxGeometry>
                </mxCell>
                <mxCell id="QzmWKm78spGW7W_lZG-n-18" value="" style="edgeStyle=none;html=1;entryX=0.365;entryY=1.061;entryDx=0;entryDy=0;entryPerimeter=0;fillColor=#e51400;strokeColor=#B20000;" parent="CTPY0rNln9jX_LGGVLBt-11" source="QzmWKm78spGW7W_lZG-n-16" target="CTPY0rNln9jX_LGGVLBt-17" edge="1">
                    <mxGeometry relative="1" as="geometry">
                        <Array as="points">
                            <mxPoint x="65.5" y="592"/>
                        </Array>
                    </mxGeometry>
                </mxCell>
                <mxCell id="QzmWKm78spGW7W_lZG-n-16" value="task complete?" style="rhombus;whiteSpace=wrap;html=1;" parent="CTPY0rNln9jX_LGGVLBt-11" vertex="1">
                    <mxGeometry x="262.75" y="548.37" width="80" height="80" as="geometry"/>
                </mxCell>
                <mxCell id="QzmWKm78spGW7W_lZG-n-22" value="No" style="text;strokeColor=none;align=center;fillColor=none;html=1;verticalAlign=middle;whiteSpace=wrap;rounded=0;" parent="CTPY0rNln9jX_LGGVLBt-11" vertex="1">
                    <mxGeometry x="215.5" y="562" width="60" height="30" as="geometry"/>
                </mxCell>
                <mxCell id="QzmWKm78spGW7W_lZG-n-23" value="Yes" style="text;strokeColor=none;align=center;fillColor=none;html=1;verticalAlign=middle;whiteSpace=wrap;rounded=0;" parent="CTPY0rNln9jX_LGGVLBt-11" vertex="1">
                    <mxGeometry x="260.5" y="652" width="60" height="30" as="geometry"/>
                </mxCell>
                <mxCell id="5tyaJ3iiX9rpP7QPfXqs-3" style="edgeStyle=none;html=1;entryX=0.524;entryY=-0.042;entryDx=0;entryDy=0;entryPerimeter=0;" parent="CTPY0rNln9jX_LGGVLBt-11" source="5tyaJ3iiX9rpP7QPfXqs-1" target="QzmWKm78spGW7W_lZG-n-7" edge="1">
                    <mxGeometry relative="1" as="geometry"/>
                </mxCell>
                <mxCell id="5tyaJ3iiX9rpP7QPfXqs-6" style="edgeStyle=none;html=1;entryX=0.369;entryY=1.016;entryDx=0;entryDy=0;entryPerimeter=0;fillColor=#e51400;strokeColor=#B20000;" parent="CTPY0rNln9jX_LGGVLBt-11" source="5tyaJ3iiX9rpP7QPfXqs-1" target="CTPY0rNln9jX_LGGVLBt-17" edge="1">
                    <mxGeometry relative="1" as="geometry">
                        <mxPoint x="65.5" y="472" as="targetPoint"/>
                        <Array as="points">
                            <mxPoint x="223.5" y="592"/>
                            <mxPoint x="140.5" y="592"/>
                            <mxPoint x="65.5" y="592"/>
                        </Array>
                    </mxGeometry>
                </mxCell>
                <mxCell id="5tyaJ3iiX9rpP7QPfXqs-1" value="preparation done?" style="rhombus;whiteSpace=wrap;html=1;" parent="CTPY0rNln9jX_LGGVLBt-11" vertex="1">
                    <mxGeometry x="201" y="628.37" width="44.5" height="45" as="geometry"/>
                </mxCell>
                <mxCell id="5tyaJ3iiX9rpP7QPfXqs-5" value="Yes" style="text;strokeColor=none;align=center;fillColor=none;html=1;verticalAlign=middle;whiteSpace=wrap;rounded=0;" parent="CTPY0rNln9jX_LGGVLBt-11" vertex="1">
                    <mxGeometry x="150" y="652" width="60" height="30" as="geometry"/>
                </mxCell>
                <mxCell id="5tyaJ3iiX9rpP7QPfXqs-7" value="No" style="text;strokeColor=none;align=center;fillColor=none;html=1;verticalAlign=middle;whiteSpace=wrap;rounded=0;" parent="CTPY0rNln9jX_LGGVLBt-11" vertex="1">
                    <mxGeometry x="170" y="592" width="60" height="30" as="geometry"/>
                </mxCell>
                <mxCell id="CTPY0rNln9jX_LGGVLBt-30" value="KTDI Admin" style="swimlane;whiteSpace=wrap;fillColor=#6d8764;fontColor=#ffffff;strokeColor=#3A5431;" parent="1" vertex="1">
                    <mxGeometry x="810" y="128" width="280" height="892" as="geometry"/>
                </mxCell>
                <mxCell id="y1BYRtEY0hZKFnVeS5PS-8" style="edgeStyle=none;html=1;entryX=0.549;entryY=0.017;entryDx=0;entryDy=0;entryPerimeter=0;fillColor=#a20025;strokeColor=#6F0000;" parent="CTPY0rNln9jX_LGGVLBt-30" source="y1BYRtEY0hZKFnVeS5PS-2" target="y1BYRtEY0hZKFnVeS5PS-4" edge="1">
                    <mxGeometry relative="1" as="geometry"/>
                </mxCell>
                <mxCell id="y1BYRtEY0hZKFnVeS5PS-2" value="" style="ellipse;shape=startState;fillColor=#000000;strokeColor=#ff0000;" parent="CTPY0rNln9jX_LGGVLBt-30" vertex="1">
                    <mxGeometry x="60" y="42" width="30" height="30" as="geometry"/>
                </mxCell>
                <mxCell id="QzmWKm78spGW7W_lZG-n-32" style="edgeStyle=none;html=1;fillColor=#e51400;strokeColor=#B20000;entryX=0.507;entryY=-0.04;entryDx=0;entryDy=0;entryPerimeter=0;" parent="CTPY0rNln9jX_LGGVLBt-30" source="y1BYRtEY0hZKFnVeS5PS-4" target="2TNyI3XQMR0dAadQANl8-1" edge="1">
                    <mxGeometry relative="1" as="geometry"/>
                </mxCell>
                <mxCell id="y1BYRtEY0hZKFnVeS5PS-4" value="Log in to the system" style="" parent="CTPY0rNln9jX_LGGVLBt-30" vertex="1">
                    <mxGeometry x="15.5" y="112" width="110" height="50" as="geometry"/>
                </mxCell>
                <mxCell id="CTPY0rNln9jX_LGGVLBt-25" value="Monitor progress" style="" parent="CTPY0rNln9jX_LGGVLBt-30" vertex="1">
                    <mxGeometry x="20.000000000000004" y="502" width="110" height="50" as="geometry"/>
                </mxCell>
                <mxCell id="2TNyI3XQMR0dAadQANl8-1" value="Approve document" style="" parent="CTPY0rNln9jX_LGGVLBt-30" vertex="1">
                    <mxGeometry x="15.5" y="337" width="110" height="50" as="geometry"/>
                </mxCell>
                <mxCell id="-nbr93kysCliQCFmGwWs-1" value="Monitor program" style="" parent="CTPY0rNln9jX_LGGVLBt-30" vertex="1">
                    <mxGeometry x="40" y="689" width="110" height="50" as="geometry"/>
                </mxCell>
                <mxCell id="QzmWKm78spGW7W_lZG-n-3" style="edgeStyle=none;html=1;entryX=-0.032;entryY=0.485;entryDx=0;entryDy=0;entryPerimeter=0;fillColor=#e51400;strokeColor=#B20000;" parent="1" target="2TNyI3XQMR0dAadQANl8-1" edge="1">
                    <mxGeometry relative="1" as="geometry">
                        <mxPoint x="600" y="489" as="sourcePoint"/>
                    </mxGeometry>
                </mxCell>
                <mxCell id="QzmWKm78spGW7W_lZG-n-8" style="edgeStyle=none;html=1;entryX=1;entryY=0.5;entryDx=0;entryDy=0;exitX=0.503;exitY=1.085;exitDx=0;exitDy=0;exitPerimeter=0;fillColor=#e51400;strokeColor=#B20000;" parent="1" source="2TNyI3XQMR0dAadQANl8-1" target="QzmWKm78spGW7W_lZG-n-6" edge="1">
                    <mxGeometry relative="1" as="geometry">
                        <mxPoint x="885" y="525" as="sourcePoint"/>
                        <Array as="points">
                            <mxPoint x="881" y="565"/>
                        </Array>
                    </mxGeometry>
                </mxCell>
                <mxCell id="QzmWKm78spGW7W_lZG-n-17" style="edgeStyle=none;html=1;fillColor=#e51400;strokeColor=#B20000;exitX=0.503;exitY=1.001;exitDx=0;exitDy=0;exitPerimeter=0;" parent="1" source="CTPY0rNln9jX_LGGVLBt-25" target="QzmWKm78spGW7W_lZG-n-16" edge="1">
                    <mxGeometry relative="1" as="geometry">
                        <Array as="points">
                            <mxPoint x="885" y="720"/>
                        </Array>
                    </mxGeometry>
                </mxCell>
                <mxCell id="QzmWKm78spGW7W_lZG-n-19" style="edgeStyle=none;html=1;fillColor=#e51400;strokeColor=#B20000;" parent="1" source="QzmWKm78spGW7W_lZG-n-16" edge="1">
                    <mxGeometry relative="1" as="geometry">
                        <mxPoint x="690" y="780" as="targetPoint"/>
                        <Array as="points">
                            <mxPoint x="750" y="780"/>
                        </Array>
                    </mxGeometry>
                </mxCell>
                <mxCell id="QzmWKm78spGW7W_lZG-n-20" style="edgeStyle=none;html=1;fillColor=#e51400;strokeColor=#B20000;" parent="1" edge="1">
                    <mxGeometry relative="1" as="geometry">
                        <mxPoint x="465" y="780" as="sourcePoint"/>
                        <mxPoint x="240" y="360" as="targetPoint"/>
                        <Array as="points">
                            <mxPoint x="315" y="780"/>
                            <mxPoint x="315" y="360"/>
                        </Array>
                    </mxGeometry>
                </mxCell>
                <mxCell id="QzmWKm78spGW7W_lZG-n-26" style="edgeStyle=none;html=1;entryX=0;entryY=0.714;entryDx=0;entryDy=0;entryPerimeter=0;exitX=1.038;exitY=0.467;exitDx=0;exitDy=0;exitPerimeter=0;fillColor=#e51400;strokeColor=#B20000;" parent="1" source="CTPY0rNln9jX_LGGVLBt-8" target="9unHEtIPezjj2xvubiNk-3" edge="1">
                    <mxGeometry relative="1" as="geometry">
                        <Array as="points">
                            <mxPoint x="300" y="451"/>
                            <mxPoint x="300" y="645"/>
                            <mxPoint x="300" y="855"/>
                        </Array>
                    </mxGeometry>
                </mxCell>
                <mxCell id="QzmWKm78spGW7W_lZG-n-27" style="edgeStyle=none;html=1;entryX=1;entryY=0.4;entryDx=0;entryDy=0;entryPerimeter=0;exitX=-0.02;exitY=0.691;exitDx=0;exitDy=0;exitPerimeter=0;fillColor=#e51400;strokeColor=#B20000;" parent="1" source="9unHEtIPezjj2xvubiNk-4" target="9unHEtIPezjj2xvubiNk-2" edge="1">
                    <mxGeometry relative="1" as="geometry">
                        <Array as="points">
                            <mxPoint x="255" y="915"/>
                            <mxPoint x="255" y="630"/>
                        </Array>
                    </mxGeometry>
                </mxCell>
                <mxCell id="QzmWKm78spGW7W_lZG-n-28" style="edgeStyle=none;html=1;entryX=-0.033;entryY=0.601;entryDx=0;entryDy=0;entryPerimeter=0;fillColor=#e51400;strokeColor=#B20000;" parent="1" target="-nbr93kysCliQCFmGwWs-1" edge="1">
                    <mxGeometry relative="1" as="geometry">
                        <mxPoint x="675" y="847" as="sourcePoint"/>
                    </mxGeometry>
                </mxCell>
                <mxCell id="QzmWKm78spGW7W_lZG-n-29" style="edgeStyle=none;html=1;fillColor=#e51400;strokeColor=#B20000;" parent="1" edge="1">
                    <mxGeometry relative="1" as="geometry">
                        <mxPoint x="900" y="870" as="targetPoint"/>
                        <mxPoint x="675" y="906" as="sourcePoint"/>
                        <Array as="points">
                            <mxPoint x="900" y="906"/>
                        </Array>
                    </mxGeometry>
                </mxCell>
                <mxCell id="QzmWKm78spGW7W_lZG-n-34" style="edgeStyle=none;html=1;exitX=-0.043;exitY=0.607;exitDx=0;exitDy=0;exitPerimeter=0;fillColor=#e51400;strokeColor=#B20000;" parent="1" source="CTPY0rNln9jX_LGGVLBt-17" target="QzmWKm78spGW7W_lZG-n-33" edge="1">
                    <mxGeometry relative="1" as="geometry"/>
                </mxCell>
                <mxCell id="QzmWKm78spGW7W_lZG-n-38" style="edgeStyle=none;html=1;fillColor=#e51400;strokeColor=#B20000;" parent="1" edge="1">
                    <mxGeometry relative="1" as="geometry">
                        <mxPoint x="240" y="550" as="sourcePoint"/>
                        <mxPoint x="465" y="900" as="targetPoint"/>
                        <Array as="points">
                            <mxPoint x="285" y="550"/>
                            <mxPoint x="285" y="900"/>
                        </Array>
                    </mxGeometry>
                </mxCell>
            </root>
        </mxGraphModel>
    </diagram>
</mxfile>